<svg width="50" height="50" viewBox="0 0 50 50" fill="none" xmlns="http://www.w3.org/2000/svg">
<g clip-path="url(#clip0_6_153)">
<path d="M0.820081 24.9889H0.849247C1.29861 24.9892 1.66725 24.6331 1.68256 24.1839C2.13338 11.3055 12.9389 1.23091 25.8173 1.68163C30.771 1.85506 35.5407 3.60138 39.435 6.66766H35.0001C34.5399 6.66766 34.1668 7.04078 34.1668 7.50098C34.1668 7.96118 34.5399 8.33429 35.0001 8.33429H41.6667H41.6783C41.7435 8.32898 41.8078 8.31617 41.87 8.29596C41.9126 8.28981 41.9546 8.28065 41.9958 8.26846C42.0192 8.25846 42.0367 8.23763 42.0592 8.22513C42.1339 8.18857 42.2026 8.14044 42.2625 8.08263L42.2708 8.0768C42.292 8.04784 42.3112 8.01753 42.3283 7.98597C42.372 7.93284 42.4087 7.8743 42.4375 7.8118C42.4604 7.74535 42.4745 7.67618 42.4791 7.60598C42.4887 7.5716 42.4957 7.5365 42.5 7.50098V0.834463C42.5 0.374265 42.1269 0.00114883 41.6667 0.00114883C41.2065 0.00114883 40.8333 0.374265 40.8333 0.834463V5.66102C30.1564 -3.08691 14.4093 -1.52319 5.66133 9.15386C2.18922 13.3917 0.20572 18.6529 0.0159326 24.1281C0.000516282 24.5878 0.360404 24.9731 0.820081 24.9889Z" fill="#BFF5FF"/>
<path d="M7.56659 40.5077C7.26076 40.1625 6.73306 40.1307 6.38786 40.4365C6.04266 40.7423 6.01079 41.27 6.31661 41.6152C6.89025 42.2589 7.49628 42.8731 8.13241 43.4551C8.47834 43.7588 9.00478 43.7244 9.30842 43.3786C9.60341 43.0425 9.5805 42.5335 9.25655 42.2252C8.66427 41.682 8.10022 41.1088 7.56659 40.5077Z" fill="#BFF5FF"/>
<path d="M17.5114 47.1059C16.7495 46.848 16.0016 46.5506 15.2706 46.2151C14.8582 46.0108 14.3582 46.1796 14.1539 46.592C13.9497 47.0043 14.1184 47.5043 14.5308 47.7086C14.545 47.7156 14.5594 47.7222 14.5739 47.7284C15.3577 48.0892 16.1599 48.4085 16.9772 48.685C17.4132 48.8325 17.8864 48.5986 18.0339 48.1625C18.1815 47.7265 17.9475 47.2534 17.5114 47.1059Z" fill="#BFF5FF"/>
<path d="M13.134 45.0951V45.0943C12.4414 44.684 11.77 44.239 11.1223 43.761C10.761 43.4759 10.237 43.5378 9.95195 43.8991C9.66685 44.2605 9.72872 44.7844 10.0901 45.0695C10.1036 45.0801 10.1174 45.0904 10.1315 45.1002C10.8242 45.613 11.5426 46.09 12.284 46.5294C12.68 46.764 13.1914 46.6333 13.426 46.2373C13.6608 45.8411 13.53 45.3298 13.134 45.0951Z" fill="#BFF5FF"/>
<path d="M6.05747 38.6269C5.58769 37.9738 5.15165 37.2971 4.75083 36.5995C4.52073 36.2002 4.01053 36.0631 3.61127 36.2932C3.21201 36.5233 3.07493 37.0335 3.30503 37.4328C3.73439 38.1787 4.20167 38.9021 4.705 39.6002C4.98134 39.9683 5.50373 40.0425 5.87174 39.7662C6.22923 39.4977 6.31121 38.9951 6.05747 38.6269Z" fill="#BFF5FF"/>
<path d="M3.73314 34.7926C3.73314 34.6765 3.70876 34.5616 3.66179 34.4555L3.66012 34.4496C3.33398 33.7151 3.04607 32.964 2.79764 32.1997C2.67681 31.7556 2.2188 31.4936 1.77474 31.6145C1.33069 31.7353 1.06861 32.1933 1.18955 32.6374C1.19663 32.6632 1.20486 32.6887 1.21434 32.7138C1.48027 33.5348 1.78849 34.3414 2.13765 35.1304C2.27129 35.4321 2.57025 35.6265 2.90014 35.6263C3.36033 35.6261 3.73324 35.2528 3.73314 34.7926Z" fill="#BFF5FF"/>
<path d="M1.53298 30.8556C1.53308 30.8556 1.53329 30.8555 1.53339 30.8555C1.98307 30.7596 2.27015 30.3178 2.17504 29.868C2.00901 29.0808 1.88328 28.2856 1.79839 27.4855C1.74985 27.0276 1.33923 26.6958 0.881324 26.7443C0.423418 26.7928 0.0915505 27.2034 0.140091 27.6614C0.231339 28.5183 0.36644 29.37 0.545082 30.213C0.640496 30.6633 1.08278 30.9509 1.53298 30.8556Z" fill="#BFF5FF"/>
<path d="M48.6675 30.0048C48.6672 30.0047 48.6669 30.0047 48.6666 30.0046C48.2199 29.894 47.7682 30.1663 47.6574 30.6129C47.4643 31.3942 47.231 32.1649 46.9583 32.9221C46.8023 33.3552 47.0268 33.8327 47.46 33.9887C47.8931 34.1447 48.3705 33.9201 48.5266 33.487C48.819 32.6761 49.0693 31.8505 49.2766 31.0138C49.387 30.567 49.1143 30.1154 48.6675 30.0048Z" fill="#BFF5FF"/>
<path d="M22.2096 48.1667C21.4109 48.0716 20.6176 47.9354 19.833 47.7584C19.384 47.6569 18.9378 47.9386 18.8363 48.3875C18.7349 48.8365 19.0165 49.2827 19.4655 49.3842C20.3065 49.5738 21.1568 49.7198 22.0129 49.8217C22.0462 49.8257 22.0795 49.8276 22.1129 49.8275C22.5731 49.8266 22.9454 49.4526 22.9445 48.9924C22.9436 48.571 22.6282 48.2165 22.2096 48.1667Z" fill="#BFF5FF"/>
<path d="M47.1308 34.7579C46.7165 34.5579 46.2186 34.7313 46.0182 35.1454C45.6679 35.8697 45.2802 36.5754 44.8566 37.2595C44.621 37.6549 44.7506 38.1663 45.146 38.4018C45.5317 38.6317 46.0303 38.5145 46.2732 38.137C46.7268 37.4037 47.1421 36.6474 47.5174 35.8712C47.7181 35.457 47.545 34.9586 47.1308 34.7579Z" fill="#BFF5FF"/>
<path d="M44.6689 39.0918C44.3087 38.8054 43.7844 38.8652 43.498 39.2255C43.493 39.2317 43.4881 39.2381 43.4833 39.2444V39.2428C42.9916 39.8806 42.4674 40.4924 41.9125 41.076C41.5952 41.4097 41.6084 41.9375 41.9421 42.2548C42.2757 42.572 42.8035 42.5588 43.1208 42.2252C43.7141 41.5999 44.2754 40.9449 44.8024 40.2627C45.0889 39.9025 45.0291 39.3783 44.6689 39.0918Z" fill="#BFF5FF"/>
<path d="M49.1806 25.0398C48.728 25.0166 48.3421 25.365 48.3191 25.8176C48.3187 25.8261 48.3184 25.8346 48.3182 25.8431C48.2899 26.6472 48.2201 27.4494 48.109 28.2463C48.0462 28.7016 48.3639 29.1217 48.819 29.1855C48.8576 29.1911 48.8966 29.1939 48.9357 29.1938C49.351 29.1932 49.7025 28.8868 49.7598 28.4755C49.8784 27.6219 49.9532 26.7627 49.984 25.9014C49.9999 25.4417 49.6404 25.056 49.1806 25.0398Z" fill="#BFF5FF"/>
<path d="M40.1667 42.7335V42.736C39.5534 43.2595 38.9137 43.7513 38.25 44.2093C37.8706 44.4716 37.7757 44.9919 38.038 45.3714C38.3003 45.7508 38.8206 45.8457 39.2 45.5834C39.9097 45.0906 40.5939 44.5622 41.25 44.0001C41.5998 43.701 41.6408 43.175 41.3417 42.8252C41.0426 42.4754 40.5165 42.4343 40.1667 42.7335Z" fill="#BFF5FF"/>
<path d="M31.7594 47.3401C30.9893 47.5721 30.2078 47.764 29.4178 47.9151C28.9658 48.002 28.6699 48.4388 28.7568 48.8908C28.8322 49.2825 29.1747 49.5659 29.5736 49.5667C29.6264 49.5669 29.6791 49.5621 29.7311 49.5525C30.578 49.3906 31.4157 49.1846 32.241 48.935C32.6781 48.791 32.9157 48.3198 32.7716 47.8828C32.6327 47.4611 32.1875 47.2225 31.7594 47.3401Z" fill="#BFF5FF"/>
<path d="M27.0712 48.2429C27.0558 48.2437 27.0406 48.245 27.0254 48.2467L27.0296 48.25C26.3629 48.3067 25.6805 48.3334 25.0005 48.3334H24.6196C24.1652 48.3398 23.7937 48.6977 23.7705 49.1517C23.7622 49.6119 24.1284 49.9917 24.5885 50C24.5886 50 24.5887 50 24.5888 50H25.0005C25.7288 50 26.4588 49.9675 27.1671 49.9067C27.6266 49.8802 27.9776 49.4863 27.951 49.0268C27.9245 48.5673 27.5305 48.2163 27.0712 48.2429Z" fill="#BFF5FF"/>
<path d="M36.1993 45.4743H36.2001C35.4946 45.8606 34.7698 46.2105 34.0285 46.5226C33.6021 46.6956 33.3965 47.1815 33.5694 47.608C33.7424 48.0344 34.2284 48.2399 34.6548 48.067C34.6611 48.0645 34.6672 48.0619 34.6734 48.0592C35.4677 47.7249 36.2443 47.3501 37 46.9359C37.4036 46.7148 37.5515 46.2083 37.3304 45.8047C37.1095 45.401 36.6029 45.2531 36.1993 45.4743Z" fill="#BFF5FF"/>
<path d="M42.4192 30.4068H39.606C38.6494 32.0751 36.5213 32.6519 34.8531 31.695C34.3168 31.3876 33.8722 30.9428 33.5646 30.4068H17.4378C16.4817 32.0748 14.3541 32.6519 12.686 31.6957C12.1443 31.3852 11.6962 30.9347 11.3883 30.3916C11.3221 30.38 11.2582 30.3569 11.1998 30.3232L8.28295 28.5731C8.10753 28.4677 8 28.278 8 28.0731V22.8229C8.00142 22.754 8.01543 22.6861 8.04083 22.6221C8.04724 22.6047 8.05436 22.5883 8.06243 22.5715C8.0705 22.5546 8.07406 22.5383 8.08356 22.5224L9.66851 19.8804L9.22794 19.0002C9.0841 18.7118 9.20112 18.3614 9.48929 18.2175C9.54128 18.1917 9.59659 18.1736 9.65379 18.1641L12.6542 17.6635L14.0782 17.4266C21.063 16.2818 28.2308 17.456 34.4851 20.77L36.2049 21.6877L38.8301 22.271C40.6146 22.6641 42.1255 23.8436 42.9395 25.4796C42.9803 25.5603 43.0019 25.6493 43.0024 25.7397V29.8233C43.0024 30.1454 42.7413 30.4068 42.4192 30.4068ZM34.4491 29.59C34.967 30.7669 36.3409 31.3012 37.5178 30.7833C38.6948 30.2653 39.2291 28.8914 38.7111 27.7145C38.1932 26.5376 36.8193 26.0032 35.6423 26.5212C34.7959 26.8936 34.2501 27.7318 34.2518 28.6566C34.2528 28.978 34.3202 29.2959 34.4495 29.59H34.4491ZM12.2808 29.59C12.7988 30.7669 14.1727 31.3012 15.3496 30.7833C16.5265 30.2653 17.0609 28.8914 16.5429 27.7145C16.0249 26.5376 14.651 26.0032 13.4741 26.5212C12.6276 26.8936 12.0819 27.7318 12.0836 28.6566C12.0845 28.978 12.1519 29.2959 12.2813 29.59H12.2808ZM9.1667 24.573H10.6251L11.5003 23.4061H9.1667V24.573ZM20.9194 18.2142C18.6959 18.0951 16.466 18.2175 14.2691 18.58L13.9626 18.6313L16.9922 21.6562H21.4119L20.9194 18.2142ZM16.7506 22.8229C16.5958 22.8229 16.4475 22.7614 16.3383 22.652L12.5505 18.8634L10.6251 19.1849L10.8587 19.6451C10.9477 19.8236 10.9394 20.0354 10.8364 20.2063L9.61368 22.2394H12.667C12.9894 22.2394 13.2505 22.5008 13.2505 22.8229C13.2505 22.9492 13.2094 23.0719 13.1337 23.1728L11.3835 25.5064C11.2734 25.6533 11.1006 25.7397 10.9169 25.7397H9.1667V27.743L10.9169 28.7948C10.9169 28.7487 10.914 28.7027 10.914 28.6566C10.914 26.7234 12.4812 25.1563 14.4141 25.1563C16.3473 25.1563 17.9145 26.7234 17.9145 28.6566C17.9133 28.8313 17.8983 29.0058 17.8701 29.1781C17.8672 29.1985 17.8701 29.2197 17.8653 29.2401H22.4951L21.5786 22.8229H16.7506ZM22.1101 18.2959L22.5903 21.6562H33.6655C30.0688 19.7954 26.1438 18.6541 22.1101 18.2959ZM41.8357 26.9064H40.669V25.7397H41.75C41.0676 24.5514 39.9165 23.7057 38.5787 23.4097L35.9379 22.8229H22.7595L23.6737 29.2398H33.1342C33.1342 29.2194 33.1342 29.1985 33.1295 29.1781C33.1015 29.0056 33.0868 28.8313 33.0851 28.6564C33.0851 26.7234 34.6523 25.1563 36.5854 25.1563C38.5184 25.1563 40.0855 26.7234 40.0855 28.6564C40.0843 28.8313 40.0694 29.0056 40.0411 29.1781C40.0383 29.1985 40.0411 29.2194 40.0366 29.2398H41.8357V26.9064Z" fill="#BFF5FF"/>
<path d="M27.8348 23.9895H25.5012V25.1562H27.8348V23.9895Z" fill="#BFF5FF"/>
</g>
<defs>
<clipPath id="clip0_6_153">
<rect width="50" height="50" fill="white"/>
</clipPath>
</defs>
</svg>
