<svg width="50" height="50" viewBox="0 0 50 50" fill="none" xmlns="http://www.w3.org/2000/svg">
<g clip-path="url(#clip0_6_245)">
<path d="M25 3.05176e-05C11.1929 3.05176e-05 0 11.1929 0 25C0 38.8071 11.1929 50 25 50C38.8071 50 50 38.8071 50 25C49.9844 11.1994 38.8006 0.0156555 25 3.05176e-05ZM25 48.3334C12.1133 48.3334 1.66667 37.8867 1.66667 25C1.66667 12.1134 12.1133 1.6667 25 1.6667C37.8867 1.6667 48.3333 12.1134 48.3333 25C48.3186 37.8806 37.8805 48.3187 25 48.3334Z" fill="#BFF5FF"/>
<path d="M19.415 11.015C19.4146 11.015 19.4142 11.0149 19.4137 11.0149C19.4131 11.0149 19.4124 11.015 19.4117 11.015H19.415Z" fill="#BFF5FF"/>
<path d="M40.5662 17.6537H38.9245V16.2894C38.9245 15.2078 38.0445 14.3278 36.963 14.3278H35.3983C34.3167 14.3278 33.4368 15.2078 33.4368 16.2894V21.9055H30.8147V20.3977C30.8147 19.3034 29.9245 18.4132 28.8302 18.4132C28.4002 18.4132 28.0023 18.5512 27.6771 18.7844C27.3574 18.1163 26.6747 17.6537 25.8859 17.6537C25.1402 17.6537 24.4894 18.0671 24.1504 18.6768C23.8154 18.4185 23.3964 18.264 22.9415 18.264C22.2513 18.264 21.6428 18.6186 21.2873 19.1549C20.94 18.8571 20.4894 18.6766 19.9972 18.6766C18.9029 18.6766 18.0127 19.5668 18.0127 20.6611V21.9057H15.5634V20.4593C15.5634 20.1763 15.334 19.947 15.0511 19.947C14.7681 19.947 14.5387 20.1763 14.5387 20.4593V32.3617C14.5387 32.8783 14.1185 33.2985 13.6019 33.2985H12.037C11.5204 33.2985 11.1002 32.8783 11.1002 32.3617V16.2894C11.1002 15.7728 11.5205 15.3525 12.037 15.3525H13.6017C14.1183 15.3525 14.5385 15.7728 14.5385 16.2894V18.2758C14.5385 18.5588 14.7679 18.7881 15.0509 18.7881C15.3338 18.7881 15.5632 18.5588 15.5632 18.2758V16.2894C15.5632 15.2078 14.6833 14.3278 13.6017 14.3278H12.037C10.9554 14.3278 10.0755 15.2078 10.0755 16.2894V17.6537H8.43376C7.64317 17.6537 7 18.2968 7 19.0873V29.5636C7 30.3542 7.64317 30.9974 8.43376 30.9974H10.0755V32.3616C10.0755 33.4432 10.9555 34.3231 12.037 34.3231H13.6017C14.6833 34.3231 15.5632 33.4432 15.5632 32.3616V26.7455H17.319V27.681C17.319 28.1618 17.4872 28.6311 17.7927 29.0025L19.3838 30.937V40.1598C19.3838 40.4428 19.6132 40.6722 19.8962 40.6722C20.1791 40.6722 20.4085 40.4428 20.4085 40.1598V30.7534C20.4085 30.6347 20.3673 30.5196 20.2919 30.4279L18.584 28.3515C18.429 28.1631 18.3436 27.925 18.3436 27.681V26.7455L28.0331 26.8047C28.316 26.8047 28.5454 26.5754 28.5454 26.2923C28.5454 26.0093 28.316 25.78 28.0331 25.78H25.7019C25.2209 25.78 24.8296 25.3887 24.8296 24.9078C24.8296 24.4269 25.2209 24.0356 25.7019 24.0356H30.1072C30.4099 24.0356 30.6562 24.2818 30.6562 24.5845V27.681C30.6562 27.9249 30.5708 28.1631 30.4158 28.3514L28.7079 30.4278C28.6325 30.5196 28.5913 30.6345 28.5913 30.7533V32.1047C28.5913 32.3877 28.8206 32.617 29.1036 32.617C29.3866 32.617 29.616 32.3877 29.616 32.1047V30.937L31.2071 29.0025C31.5125 28.6311 31.6808 28.1617 31.6808 27.681V26.7454H33.4366V32.3616C33.4366 33.4431 34.3165 34.3231 35.3981 34.3231H36.9628C38.0444 34.3231 38.9243 33.4431 38.9243 32.3616V30.9973H40.566C41.3566 30.9973 41.9998 30.3541 41.9998 29.5635V19.0873C42 18.2968 41.3568 17.6537 40.5662 17.6537ZM8.43376 29.9727C8.20819 29.9727 8.0247 29.7891 8.0247 29.5636V19.0873C8.0247 18.8618 8.20819 18.6784 8.43376 18.6784H10.0755V29.9727H8.43376ZM28.8301 19.4379C29.3594 19.4379 29.7899 19.8685 29.7899 20.3977V22.3052C29.7899 22.5758 29.6752 22.8303 29.4788 23.011H28.1814C27.985 22.8303 27.8703 22.5758 27.8703 22.3052V20.3977C27.8703 19.8685 28.3008 19.4379 28.8301 19.4379ZM24.926 19.6382C24.926 19.1089 25.3565 18.6784 25.8858 18.6784C26.415 18.6784 26.8456 19.1089 26.8456 19.6382V22.3052C26.8456 22.5758 26.7308 22.8303 26.5344 23.011H25.7019C25.5605 23.011 25.4228 23.027 25.2901 23.0566C25.062 22.8765 24.9259 22.6024 24.9259 22.3052V19.6382H24.926ZM21.9816 20.2485C21.9816 19.7192 22.4122 19.2887 22.9414 19.2887C23.4706 19.2887 23.9013 19.7192 23.9013 20.2485V22.3052C23.9013 22.8345 23.4707 23.265 22.9414 23.265C22.4121 23.265 21.9816 22.8345 21.9816 22.3052V20.2485ZM19.0372 20.661C19.0372 20.1318 19.4678 19.7012 19.997 19.7012C20.5262 19.7012 20.9568 20.1318 20.9568 20.661V22.3052C20.9568 22.8345 20.5262 23.2651 19.997 23.2651C19.4678 23.2651 19.0372 22.8345 19.0372 22.3052V20.661ZM15.5633 22.9302H18.114C18.3765 23.7191 19.1212 24.2897 19.9971 24.2897C20.5806 24.2897 21.1061 24.0364 21.4695 23.6342C21.8329 24.0364 22.358 24.2897 22.9415 24.2897C23.3641 24.2897 23.7554 24.1556 24.0775 23.9295C23.9048 24.2154 23.8051 24.5502 23.8051 24.9078C23.8051 25.1986 23.8711 25.4742 23.9885 25.7207H15.5633V22.9302ZM31.681 25.7208V24.5846C31.681 23.9058 31.249 23.3261 30.6455 23.1058C30.6708 23.0485 30.6933 22.9899 30.7131 22.9302H33.4368V25.7208H31.681ZM40.9753 29.5636C40.9753 29.7892 40.7918 29.9727 40.5662 29.9727H38.9245V28.492C38.9245 28.209 38.6951 27.9797 38.4121 27.9797C38.1292 27.9797 37.8998 28.209 37.8998 28.492V32.3616C37.8998 32.8782 37.4795 33.2984 36.963 33.2984H35.3983C34.8817 33.2984 34.4615 32.8782 34.4615 32.3616V16.2894C34.4615 15.7728 34.8817 15.3525 35.3983 15.3525H36.963C37.4796 15.3525 37.8998 15.7728 37.8998 16.2894V26.3085C37.8998 26.5916 38.1292 26.8209 38.4121 26.8209C38.6951 26.8209 38.9245 26.5916 38.9245 26.3085V18.6784H40.5662C40.7918 18.6784 40.9753 18.8618 40.9753 19.0873V29.5636Z" fill="#BFF5FF"/>
<path d="M29.1037 33.7758C28.8208 33.7758 28.5914 34.0051 28.5914 34.2882V40.1598C28.5914 40.4428 28.8208 40.6721 29.1037 40.6721C29.3867 40.6721 29.6161 40.4428 29.6161 40.1598V34.2882C29.6161 34.0051 29.3867 33.7758 29.1037 33.7758Z" fill="#BFF5FF"/>
</g>
<defs>
<clipPath id="clip0_6_245">
<rect width="50" height="50" fill="white"/>
</clipPath>
</defs>
</svg>
