<svg width="20" height="20" viewBox="0 0 20 20" fill="none" xmlns="http://www.w3.org/2000/svg">
<path d="M18 0H2C0.895431 0 0 0.895431 0 2V18C0 19.1046 0.895431 20 2 20H18C19.1046 20 20 19.1046 20 18V2C20 0.895431 19.1046 0 18 0Z" fill="#3B5998"/>
<path d="M13.0916 9.65463H11.312V16.0002H8.61564V9.65463H7.33325V7.42456H8.61564V5.98145C8.61564 4.94947 9.11931 3.3335 11.336 3.3335L13.3333 3.34163V5.50629H11.8841C11.6464 5.50629 11.3122 5.62188 11.3122 6.11417V7.42663H13.3272L13.0916 9.65463Z" fill="white"/>
</svg>
