<svg width="20" height="20" viewBox="0 0 20 20" fill="none" xmlns="http://www.w3.org/2000/svg">
<g clip-path="url(#clip0_15_92)">
<path d="M18.1673 11.3566L18.0789 9.7807L17.1169 11.032C17.0403 11.1316 16.8772 11.3078 16.669 11.4684C16.7512 11.1958 16.8247 10.885 16.8732 10.5421C17.0413 9.35465 16.9366 7.53219 15.4843 5.59313L14.8749 4.77953L14.4756 5.71434C14.0151 6.79262 13.2698 7.33359 12.5772 7.09246C12.044 6.90691 11.6106 6.29668 11.3883 5.41812C11.1809 4.59867 11.0603 3.15668 11.6642 0.94043L11.9205 0L10.9696 0.214219C7.76198 0.936797 5.60053 3.21469 4.71881 6.80156C4.34819 8.30934 4.27838 9.73781 4.28877 10.704C3.53088 10.0913 3.1524 9.55363 3.14248 9.53941L2.42057 8.47879L2.09174 9.72066C1.911 10.4032 1.8194 11.1094 1.8194 11.8195C1.8194 16.2965 5.43463 19.9444 9.89905 19.9987C9.9326 19.9996 9.96623 20 9.99998 20C10.0337 20 10.0674 19.9996 10.1009 19.9987C14.5654 19.9444 18.1806 16.2965 18.1806 11.8195C18.1806 11.6696 18.1761 11.5139 18.1673 11.3566ZM10 18.8271C8.4869 18.8271 7.25592 17.5962 7.25592 16.0831C7.25592 13.4425 8.50463 12.2596 9.47799 11.7387C9.35397 12.4091 9.46393 13.0443 9.67053 13.5173C9.97846 14.2221 10.5279 14.6839 11.1404 14.7523C11.381 14.7791 11.7837 14.7584 12.2058 14.4512C12.5521 14.92 12.7441 15.4919 12.7441 16.0831C12.7441 17.5962 11.5131 18.8271 10 18.8271ZM13.4645 17.9088C13.7531 17.3633 13.9169 16.742 13.9169 16.0831C13.9169 14.9727 13.4428 13.91 12.616 13.1678L12.1351 12.736L11.752 13.2565C11.6544 13.3891 11.462 13.6085 11.2707 13.5868C11.119 13.5698 10.8977 13.3966 10.7454 13.0478C10.5347 12.5656 10.492 11.8034 11.0035 11.1102L11.8153 10.01L10.4588 10.18C10.413 10.1858 9.32612 10.3297 8.24834 11.1398C6.45885 12.4847 6.08319 14.5703 6.08319 16.0831C6.08319 16.7421 6.24705 17.3636 6.53584 17.9092C4.42108 16.7014 2.99241 14.4242 2.99241 11.8194C2.99241 11.5972 3.00287 11.3755 3.02365 11.1552C3.41916 11.5299 3.95533 11.9664 4.63795 12.3714L5.65698 12.9755L5.51959 11.7986C5.51694 11.7758 5.26006 9.48691 5.86526 7.05176C6.55725 4.26703 8.0453 2.44762 10.2951 1.63008C9.98135 3.17937 9.96479 4.57367 10.2514 5.70594C10.5722 6.97359 11.2796 7.88273 12.1919 8.20016C12.8262 8.42082 13.5097 8.33879 14.1169 7.96922C14.4664 7.75648 14.7825 7.45371 15.0543 7.07465C15.6415 8.12313 15.8649 9.21371 15.719 10.3268C15.581 11.3798 15.1476 12.0677 15.1447 12.0723L14.643 12.8419L15.5523 12.9729C16.0101 13.0389 16.4882 12.9382 16.9552 12.6805C16.6794 14.9203 15.3424 16.8362 13.4645 17.9088Z" fill="#F2994A"/>
</g>
<defs>
<clipPath id="clip0_15_92">
<rect width="20" height="20" fill="white"/>
</clipPath>
</defs>
</svg>
