<svg width="14" height="18" viewBox="0 0 14 18" fill="none" xmlns="http://www.w3.org/2000/svg">
<path d="M6.51893 0C2.92437 0 0 2.92437 0 6.51889C0 10.9798 5.8338 17.5287 6.08218 17.8053C6.31548 18.0651 6.7228 18.0647 6.95567 17.8053C7.20405 17.5287 13.0379 10.9798 13.0379 6.51889C13.0378 2.92437 10.1134 0 6.51893 0ZM6.51893 16.5139C4.55555 14.1817 1.17394 9.58051 1.17394 6.51896C1.17394 3.57167 3.57167 1.17394 6.51893 1.17394C9.46618 1.17394 11.8639 3.57167 11.8639 6.51893C11.8639 9.58062 8.48279 14.181 6.51893 16.5139Z" fill="#057CA9"/>
<path d="M6.51894 3.23926C4.71043 3.23926 3.23914 4.71058 3.23914 6.51909C3.23914 8.3276 4.71046 9.79893 6.51894 9.79893C8.32741 9.79893 9.7987 8.3276 9.7987 6.51909C9.7987 4.71058 8.32741 3.23926 6.51894 3.23926ZM6.51894 8.62499C5.35772 8.62499 4.41308 7.68031 4.41308 6.51909C4.41308 5.35788 5.35776 4.4132 6.51894 4.4132C7.68011 4.4132 8.6248 5.35788 8.6248 6.51909C8.6248 7.68031 7.68011 8.62499 6.51894 8.62499Z" fill="#057CA9"/>
</svg>
