<svg width="20" height="20" viewBox="0 0 20 20" fill="none" xmlns="http://www.w3.org/2000/svg">
<path d="M18 0H2C0.895431 0 0 0.895431 0 2V18C0 19.1046 0.895431 20 2 20H18C19.1046 20 20 19.1046 20 18V2C20 0.895431 19.1046 0 18 0Z" fill="url(#paint0_linear_26_60)"/>
<path d="M10.0003 4.00578C7.54268 4.00578 5.20895 3.78734 4.31756 6.07323C3.94936 7.01735 4.00283 8.24348 4.00283 9.99916C4.00283 11.5398 3.95342 12.9877 4.31756 13.9244C5.20692 16.2116 7.5596 15.9925 9.99892 15.9925C12.3523 15.9925 14.7787 16.2373 15.681 13.9244C16.0498 12.9708 15.9957 11.7629 15.9957 9.99916C15.9957 7.6578 16.125 6.14627 14.9885 5.01144C13.8379 3.86173 12.2819 4.00578 9.99756 4.00578H10.0003ZM9.46286 5.08584C14.5892 5.07772 15.2417 4.50828 14.8816 12.419C14.7537 15.2168 12.6217 14.9098 10.0009 14.9098C5.22249 14.9098 5.08509 14.7732 5.08509 9.99645C5.08509 5.16429 5.46412 5.08854 9.46286 5.08448V5.08584ZM13.2017 6.08067C12.8044 6.08067 12.4822 6.40259 12.4822 6.79958C12.4822 7.19657 12.8044 7.51849 13.2017 7.51849C13.599 7.51849 13.9212 7.19657 13.9212 6.79958C13.9212 6.40259 13.599 6.08067 13.2017 6.08067ZM10.0003 6.92131C8.29938 6.92131 6.92067 8.29961 6.92067 9.99916C6.92067 11.6987 8.29938 13.0763 10.0003 13.0763C11.7012 13.0763 13.0792 11.6987 13.0792 9.99916C13.0792 8.29961 11.7012 6.92131 10.0003 6.92131ZM10.0003 8.00136C12.6433 8.00136 12.6467 11.9969 10.0003 11.9969C7.3579 11.9969 7.35384 8.00136 10.0003 8.00136Z" fill="white"/>
<defs>
<linearGradient id="paint0_linear_26_60" x1="1.34283" y1="18.697" x2="19.8742" y2="2.65517" gradientUnits="userSpaceOnUse">
<stop stop-color="#FFDD55"/>
<stop offset="0.5" stop-color="#FF543E"/>
<stop offset="1" stop-color="#C837AB"/>
</linearGradient>
</defs>
</svg>
