<svg width="40" height="40" viewBox="0 0 40 40" fill="none" xmlns="http://www.w3.org/2000/svg">
<g clip-path="url(#clip0_15_49)">
<path d="M39.8478 22.8114C39.8465 22.7875 39.8443 22.7635 39.8408 22.7396L37.8359 8.789C37.8018 8.55158 37.6605 8.34298 37.4528 8.22322C37.2451 8.10345 36.9938 8.08564 36.7711 8.17517L27.5443 11.8847C27.1439 12.0456 26.9499 12.5007 27.1107 12.901C27.2718 13.3015 27.7269 13.4955 28.1272 13.3345L36.4306 9.99619L38.2807 22.8693C38.2817 22.9056 38.2853 22.942 38.2914 22.9784C38.696 25.3598 38.2531 27.8241 37.0446 29.9174C35.6528 32.328 33.4029 34.0509 30.7093 34.7686C28.0149 35.4866 25.1992 35.1131 22.7806 33.7168C22.7639 33.7071 22.7467 33.699 22.7296 33.6907C23.2481 33.2967 23.7358 32.87 24.1907 32.4136L33.3375 29.9627C33.7543 29.8511 34.0017 29.4226 33.89 29.0058C33.7783 28.589 33.3496 28.3416 32.9331 28.4533L25.8951 30.3391C26.6685 29.1886 27.2735 27.9199 27.6869 26.5624L33.966 24.88C34.3829 24.7684 34.6302 24.3399 34.5185 23.9231C34.4068 23.5063 33.9781 23.2588 33.5616 23.3706L28.9414 24.6085L30.6788 21.5992L34.3503 20.6155C34.7672 20.5038 35.0145 20.0753 34.9028 19.6585C34.7911 19.2417 34.3624 18.9943 33.9459 19.106L31.7838 19.6854L33.4463 16.8058C33.6621 16.432 33.534 15.9542 33.1604 15.7385C32.7866 15.5227 32.3088 15.6508 32.0931 16.0245L30.4306 18.904L29.8512 16.7419C29.7395 16.3251 29.311 16.0777 28.8943 16.1894C28.4775 16.301 28.2301 16.7295 28.3418 17.1463L29.3256 20.8178L28.309 22.5786C28.339 20.0776 27.6991 17.606 26.4165 15.3846C24.8014 12.5873 22.2526 10.4148 19.2364 9.26384C19.2314 9.26173 19.2264 9.25962 19.2214 9.25751L15.6861 7.82267C15.2859 7.6604 14.8306 7.85306 14.6683 8.25283C14.5061 8.65275 14.6986 9.10837 15.0985 9.27064L18.6016 10.6924C18.6175 10.6996 18.6336 10.7063 18.65 10.7126C21.3445 11.733 23.6222 13.6696 25.0632 16.1658C26.7407 19.0714 27.1832 22.4582 26.3092 25.7026C25.5029 28.6952 23.6649 31.2354 21.0977 32.9326L19.7864 30.6615L22.6292 20.0524C22.7409 19.6356 22.4936 19.2072 22.0767 19.0955C21.6596 18.9838 21.2315 19.2312 21.1198 19.648L18.6816 28.7478L15.7889 23.7376L17.7611 16.3776C17.8729 15.9607 17.6255 15.5324 17.2086 15.4206C16.7917 15.3089 16.3635 15.5563 16.2518 15.9731L14.6841 21.8238L12.4039 17.8743L13.5916 13.4419C13.7033 13.025 13.456 12.5967 13.0391 12.4849C12.6221 12.3733 12.1939 12.6206 12.0822 13.0374L11.2989 15.9605L9.13871 12.2189C8.92301 11.8452 8.44512 11.7171 8.07145 11.933C7.6977 12.1487 7.56965 12.6266 7.78551 13.0002L9.94567 16.7417L7.0227 15.9585C6.60574 15.8468 6.17754 16.0942 6.06582 16.511C5.9541 16.9279 6.20145 17.3563 6.61832 17.468L11.0507 18.6557L13.3309 22.6052L7.48043 21.0376C7.06348 20.9259 6.63528 21.1733 6.52356 21.5901C6.41184 22.007 6.65918 22.4353 7.07606 22.547L14.4359 24.5192L17.3286 29.5294L8.22895 27.0912C7.81192 26.9795 7.38379 27.2269 7.27207 27.6437C7.16035 28.0606 7.4077 28.4889 7.82457 28.6006L18.4336 31.4433L19.7446 33.7142C13.8404 36.6568 6.57426 34.5374 3.24168 28.7653C1.78496 26.2422 1.25121 23.2719 1.73879 20.4015C1.74543 20.3627 1.74895 20.3241 1.74957 20.2856L3.98059 4.75861L9.15645 6.85931C9.55668 7.02165 10.0119 6.829 10.1742 6.42915C10.3364 6.02923 10.1439 5.57361 9.74403 5.41134L3.64309 2.93509C3.42051 2.84486 3.16848 2.86189 2.9602 2.9815C2.75184 3.10111 2.61012 3.31001 2.5759 3.54798L0.188088 20.1631C0.18426 20.1895 0.181916 20.2159 0.180823 20.242C-0.337771 23.4387 0.267072 26.7387 1.88809 29.5463C4.49848 34.0678 9.25481 36.5968 14.1442 36.5967C16.3036 36.5967 18.4886 36.1015 20.5264 35.0686L21.4867 36.7317C21.6314 36.9824 21.894 37.1225 22.1641 37.1225C22.2966 37.1225 22.431 37.0888 22.554 37.0177C22.9278 36.802 23.0558 36.3242 22.84 35.9505L22.4839 35.3338C24.2104 36.23 26.0934 36.6885 27.9989 36.6885C29.0372 36.6885 30.0822 36.5528 31.1117 36.2785C34.2093 35.4531 36.7971 33.4713 38.3979 30.6986C39.7721 28.3186 40.2855 25.5214 39.8478 22.8114Z" fill="#00B2D0"/>
<path d="M12.9108 6.76272C12.7655 6.61741 12.564 6.53381 12.3584 6.53381C12.1529 6.53381 11.9513 6.61741 11.806 6.76272C11.6607 6.90881 11.5771 7.1096 11.5771 7.31514C11.5771 7.52139 11.6606 7.72225 11.806 7.86835C11.9513 8.01374 12.1529 8.09725 12.3584 8.09725C12.5639 8.09725 12.7655 8.01366 12.9108 7.86835C13.0569 7.72225 13.1397 7.52061 13.1397 7.31514C13.1397 7.10967 13.0569 6.90881 12.9108 6.76272Z" fill="#00B2D0"/>
<path d="M34.6784 13.6225L34.6737 13.6161C34.4201 13.2669 33.9314 13.1894 33.5824 13.443C33.2332 13.6965 33.1556 14.1852 33.4092 14.5343L33.4139 14.5406C33.5668 14.7511 33.8052 14.8629 34.0468 14.8629C34.206 14.8629 34.3667 14.8144 34.5053 14.7137C34.8544 14.4602 34.9319 13.9716 34.6784 13.6225Z" fill="#00B2D0"/>
</g>
<defs>
<clipPath id="clip0_15_49">
<rect width="40" height="40" fill="white" transform="translate(0 0.00012207)"/>
</clipPath>
</defs>
</svg>
