<svg width="50" height="50" viewBox="0 0 50 50" fill="none" xmlns="http://www.w3.org/2000/svg">
<g clip-path="url(#clip0_14_273)">
<path d="M49.7852 23.0889L35.7892 9.09311C35.2074 8.51118 34.4337 8.19067 33.6107 8.19067C32.7878 8.19067 32.0141 8.51118 31.4322 9.09311L25.3912 15.1342L22.4813 12.2243C21.8995 11.6424 21.1258 11.322 20.3028 11.322C19.4799 11.322 18.7062 11.6424 18.1243 12.2243L0.214555 30.1342C-0.0714776 30.4202 -0.0714776 30.884 0.214555 31.1699C0.357522 31.3129 0.54502 31.3845 0.732421 31.3845C0.919821 31.3845 1.10732 31.313 1.25029 31.1699L14.0077 18.4125L15.5875 19.9923C16.1782 20.583 17.1394 20.583 17.7303 19.9923L19.1348 18.5878C19.1385 18.5842 19.1495 18.5731 19.1704 18.5731C19.1912 18.5731 19.2024 18.5842 19.2061 18.5878L20.5719 19.9536L20.2376 20.2879C19.9516 20.5739 19.9516 21.0377 20.2376 21.3236C20.5236 21.6097 20.9874 21.6097 21.2733 21.3236L23.4342 19.1628L24.5491 20.2778C24.997 20.7258 25.5856 20.9497 26.1741 20.9497C26.7625 20.9497 27.351 20.7258 27.7991 20.2778L29.2362 18.8407C29.5222 18.5546 29.5222 18.0909 29.2362 17.8049C28.9501 17.5189 28.4864 17.5189 28.2004 17.8049L26.7633 19.242C26.4384 19.567 25.9098 19.5669 25.5849 19.242L24.47 18.1271L32.4681 10.1289C32.7733 9.82376 33.1792 9.6556 33.6108 9.6556C34.0424 9.6556 34.4483 9.82376 34.7536 10.1289L41.6019 16.9773L41.2699 17.3093C40.946 17.6333 40.4195 17.6342 40.0944 17.3123C40.093 17.3108 40.0915 17.3093 40.0901 17.308C39.5391 16.7568 38.6424 16.7568 38.0912 17.308L36.6709 18.7283C36.346 19.0533 35.8174 19.0532 35.4925 18.7283L32.3843 15.62C32.1173 15.353 31.7623 15.2059 31.3849 15.2059C31.0073 15.2059 30.6523 15.353 30.3854 15.62C30.0993 15.906 30.0993 16.3698 30.3854 16.6557C30.6592 16.9295 31.0959 16.9412 31.3836 16.6908L34.4568 19.7639C34.9047 20.2119 35.4933 20.4359 36.0818 20.4359C36.6703 20.4359 37.2587 20.2119 37.7068 19.7639L39.0911 18.3796C39.9898 19.2409 41.4216 19.2294 42.3058 18.3451L42.6379 18.013L48.7494 24.1246C48.8924 24.2676 49.0799 24.3391 49.2673 24.3391C49.4547 24.3391 49.6422 24.2677 49.7852 24.1246C50.0712 23.8386 50.0712 23.3748 49.7852 23.0889ZM21.6076 18.9178L20.2419 17.5521C19.9557 17.2659 19.5752 17.1083 19.1704 17.1083C18.7656 17.1083 18.3851 17.2659 18.099 17.5521L16.6946 18.9565C16.6748 18.9761 16.6429 18.9762 16.6233 18.9565L15.0435 17.3767L19.1602 13.2602C19.7902 12.6301 20.8155 12.6301 21.4456 13.2602L24.3554 16.17L21.6076 18.9178Z" fill="#00B2D0"/>
<path d="M49.5557 34.6759C49.4799 34.6434 48.8287 34.3696 47.6511 34.0174V32.1675H49.2671C49.5073 32.1675 49.7322 32.0497 49.8692 31.8522C50.006 31.6548 50.0373 31.4028 49.9529 31.1779L47.6045 24.9154C47.4973 24.6295 47.2241 24.4401 46.9188 24.4401C46.6135 24.4401 46.3402 24.6294 46.2331 24.9154L44.4435 29.6874L42.6282 28.4772C42.3821 28.3131 42.0617 28.3131 41.8157 28.4772L40.606 29.2837V28.3037C40.606 28.1095 40.5288 27.9232 40.3914 27.7859L35.6945 23.0889C35.4085 22.8029 34.9447 22.8029 34.6588 23.0889L30.2127 27.535L29.6089 25.7237C29.5092 25.4246 29.2293 25.2229 28.9141 25.2229C28.5988 25.2229 28.319 25.4247 28.2193 25.7237L26.8266 29.9017L24.9121 24.1581C24.8124 23.8589 24.5325 23.6573 24.2173 23.6573C23.902 23.6573 23.6221 23.859 23.5224 24.1581L21.174 31.2034C21.1683 31.2207 21.1643 31.2384 21.16 31.2559L20.0383 30.1343C19.7523 29.8482 19.2885 29.8482 19.0026 30.1343L16.6541 32.4827C16.5167 32.62 16.4396 32.8063 16.4396 33.0006V36.4683C15.8918 36.6498 15.3367 36.8322 14.7732 37.0141V33.7834C14.7732 33.5891 14.6961 33.4028 14.5587 33.2655L11.9452 30.6521L19.1454 23.4519C19.4315 23.1659 19.4315 22.7021 19.1454 22.4162C18.8594 22.1302 18.3956 22.1302 18.1097 22.4162L10.9095 29.6164L10.6445 29.3515C10.5071 29.2141 10.3209 29.1369 10.1267 29.1369C9.93242 29.1369 9.7461 29.2141 9.60879 29.3515L7.35296 31.6073L6.89837 30.395C6.79114 30.1092 6.51791 29.9197 6.21264 29.9197C5.90736 29.9197 5.63403 30.1091 5.5269 30.395L3.17848 36.6576C3.09411 36.8825 3.12546 37.1344 3.26227 37.3319C3.39909 37.5293 3.62408 37.6471 3.86432 37.6471H5.48032V39.5556C3.98053 39.8705 2.4324 40.1419 0.832412 40.3508C0.431342 40.4031 0.14863 40.7707 0.200973 41.1719C0.249117 41.5408 0.563958 41.8096 0.926357 41.8096C0.957899 41.8096 0.989833 41.8075 1.02206 41.8033C7.73518 40.927 13.5095 38.9952 18.6042 37.2908C22.0019 36.154 25.1238 35.1098 28.1821 34.4507V36.1318C28.1821 36.5363 28.51 36.8642 28.9145 36.8642C29.319 36.8642 29.6469 36.5363 29.6469 36.1318V34.1652C31.2274 33.8909 32.8 33.7329 34.3942 33.7329C43.5029 33.7329 48.9262 35.9995 48.9792 36.0221C49.3512 36.1815 49.7816 36.0092 49.9409 35.6374C50.0997 35.2658 49.9275 34.8353 49.5557 34.6759ZM4.92056 36.1824L6.21215 32.7382L7.50374 36.1824H4.92056ZM13.308 37.4789C11.2901 38.1073 9.17218 38.7125 6.94456 39.2312V37.6472H8.56056C8.80079 37.6472 9.02569 37.5294 9.16261 37.332C9.29942 37.1345 9.33077 36.8826 9.2464 36.6577L7.9175 33.1139L10.1263 30.9052L13.308 34.0869V37.4789ZM21.136 34.9097C20.1454 35.2306 19.1472 35.5644 18.1388 35.9017C18.0609 35.9278 17.9823 35.954 17.904 35.9802V33.304L19.52 31.688L21.136 33.304V34.9097ZM24.217 26.7058L25.5493 30.7026H22.8847L24.217 26.7058ZM23.4845 34.1751C23.1905 34.2631 22.896 34.3531 22.601 34.4447V33.0007C22.601 32.8064 22.5238 32.6201 22.3864 32.4828L22.0711 32.1675H23.4845V34.1751ZM25.9712 33.4289C25.9816 33.4432 25.9932 33.4562 26.0044 33.4696C25.6533 33.56 25.3016 33.6542 24.9494 33.7518V32.1674H26.0711L25.8706 32.769C25.7961 32.9925 25.8335 33.238 25.9712 33.4289ZM27.5817 32.2682L28.9139 28.2714L30.2462 32.2682H27.5817ZM39.1408 32.4703C37.6937 32.3448 36.109 32.2681 34.3935 32.2681C33.5375 32.2682 32.6844 32.3131 31.8325 32.3953L31.2118 30.5333V28.607L35.1763 24.6425L39.1408 28.607V32.4703ZM43.8378 33.1055C42.8735 32.9248 41.7939 32.7563 40.6057 32.6185V31.0441L42.2218 29.9668L43.8378 31.0441V33.1055ZM46.9187 27.2584L48.2103 30.7026H45.6271L46.9187 27.2584ZM46.1863 33.6169C45.9082 33.5473 45.6134 33.4771 45.3027 33.4072V32.1674H46.1863V33.6169Z" fill="#00B2D0"/>
<path d="M10.9091 34.6166C10.5046 34.6166 10.1767 34.9445 10.1767 35.349V36.1318C10.1767 36.5363 10.5046 36.8642 10.9091 36.8642C11.3136 36.8642 11.6415 36.5363 11.6415 36.1318V35.349C11.6415 34.9445 11.3136 34.6166 10.9091 34.6166Z" fill="#00B2D0"/>
<path d="M33.6107 28.3541C33.2062 28.3541 32.8783 28.6821 32.8783 29.0865V29.8693C32.8783 30.2738 33.2062 30.6018 33.6107 30.6018C34.0152 30.6018 34.3431 30.2738 34.3431 29.8693V29.0865C34.3431 28.682 34.0152 28.3541 33.6107 28.3541Z" fill="#00B2D0"/>
<path d="M36.742 28.3541C36.3375 28.3541 36.0096 28.6821 36.0096 29.0865V29.8693C36.0096 30.2738 36.3375 30.6018 36.742 30.6018C37.1465 30.6018 37.4744 30.2738 37.4744 29.8693V29.0865C37.4744 28.682 37.1465 28.3541 36.742 28.3541Z" fill="#00B2D0"/>
</g>
<defs>
<clipPath id="clip0_14_273">
<rect width="50" height="50" fill="white" transform="translate(0 0.00012207)"/>
</clipPath>
</defs>
</svg>
