<svg width="60" height="60" viewBox="0 0 60 60" fill="none" xmlns="http://www.w3.org/2000/svg">
<path d="M51.1629 20.8964L48.75 17.5126V13.125C48.75 12.8764 48.6512 12.6379 48.4754 12.4621C48.2996 12.2863 48.0611 12.1875 47.8125 12.1875H42.1875C41.9389 12.1875 41.7004 12.2863 41.5246 12.4621C41.3488 12.6379 41.25 12.8764 41.25 13.125V17.5126L38.838 20.8951C38.574 21.2639 38.3307 21.6471 38.1094 22.043L39.7464 22.957C39.9338 22.6216 40.1398 22.2968 40.3635 21.9844L42.9507 18.3562C43.064 18.1975 43.1249 18.0075 43.125 17.8125V14.0625H46.875V17.8125C46.875 18.0077 46.936 18.198 47.0494 18.3568L49.6392 21.9887C50.1662 22.724 50.5924 23.5266 50.9062 24.375H44.0625V26.25H51.3984C51.5012 26.8226 51.5561 27.4027 51.5625 27.9844V28.125H44.0625V30H51.5625V31.875H44.0625V33.75H51.1984L50.9729 34.438C50.5095 35.8149 50.509 37.3056 50.9715 38.6829L51.3108 39.7179C51.4765 40.2117 51.5615 40.7291 51.5625 41.25H44.0625V43.125H51.5625V45H44.0625V46.875H51.5625V48.75H44.0625V50.625H51.5625V54.375C51.562 54.8721 51.3643 55.3488 51.0128 55.7003C50.6613 56.0518 50.1846 56.2495 49.6875 56.25H47.6532C47.529 56.25 47.4061 56.2255 47.2914 56.1777C47.1768 56.1299 47.0727 56.0599 46.9853 55.9717C46.4523 55.4577 45.7408 55.1705 45.0003 55.1705C44.2599 55.1705 43.5484 55.4577 43.0154 55.9717L44.3412 57.2974C44.517 57.1244 44.7537 57.0275 45.0003 57.0275C45.247 57.0275 45.4837 57.1244 45.6595 57.2974C45.9206 57.5603 46.2313 57.7688 46.5735 57.9109C46.9157 58.0529 47.2827 58.1257 47.6532 58.125H49.6875C50.6817 58.1239 51.6349 57.7284 52.3379 57.0254C53.0409 56.3224 53.4364 55.3692 53.4375 54.375V41.25C53.4366 40.5292 53.3196 39.8132 53.091 39.1296L52.7517 38.0946C52.4156 37.0994 52.4161 36.0212 52.7531 35.0263L53.093 33.9899C53.2012 33.6502 53.2877 33.3041 53.3521 32.9535C53.4075 32.5966 53.4361 32.2361 53.4375 31.875V27.9844C53.436 27.0097 53.3202 26.0385 53.0924 25.0908C52.7269 23.5809 52.0716 22.1564 51.1629 20.8964Z" fill="url(#paint0_linear_26_1)"/>
<path d="M6.56249 22.5V50.8594C6.56463 52.7857 7.3308 54.6325 8.69291 55.9946C10.055 57.3567 11.9018 58.1229 13.8281 58.125C15.4017 58.1298 16.9335 57.6189 18.1893 56.6707C18.6217 56.3466 19.1476 56.1715 19.688 56.1715C20.2284 56.1715 20.7542 56.3466 21.1867 56.6707C22.3695 57.5618 23.7977 58.0677 25.2777 58.12L25.3473 56.2459C24.2502 56.2079 23.1913 55.8331 22.3146 55.1725C21.5565 54.6049 20.635 54.2982 19.688 54.2982C18.741 54.2982 17.8194 54.6049 17.0613 55.1725C16.1303 55.8753 14.9947 56.2538 13.8281 56.25C12.399 56.2483 11.0288 55.6798 10.0182 54.6693C9.00765 53.6587 8.43917 52.2885 8.43749 50.8594V45.9375H25.3125V44.0625H8.43749V25.3125H29.0625V23.4375H8.43749V22.5C8.43324 20.1203 9.18544 17.8009 10.5855 15.8767C11.9855 13.9524 13.9609 12.5229 16.2264 11.7947C16.4149 11.7338 16.5792 11.6146 16.6958 11.4544C16.8123 11.2942 16.8751 11.1011 16.875 10.903V8.4375H22.5V10.903C22.4999 11.1011 22.5627 11.2942 22.6792 11.4544C22.7958 11.6146 22.9601 11.7338 23.1486 11.7947C25.2743 12.4758 27.1481 13.7762 28.53 15.5292C29.9118 17.2822 30.7387 19.4079 30.9046 21.6339L32.7741 21.4911C32.5898 19.0109 31.7017 16.6347 30.2139 14.6417C28.7261 12.6486 26.7005 11.1215 24.375 10.2397V8.4375H26.25V6.5625H24.375V2.8125C24.375 2.56386 24.2762 2.3254 24.1004 2.14959C23.9246 1.97377 23.6861 1.875 23.4375 1.875H15.9375C15.6889 1.875 15.4504 1.97377 15.2746 2.14959C15.0988 2.3254 15 2.56386 15 2.8125V6.5625H13.125V8.4375H15V10.2397C12.5149 11.1847 10.3765 12.8639 8.86925 15.054C7.362 17.2442 6.5574 19.8413 6.56249 22.5ZM16.875 3.75H22.5V6.5625H16.875V3.75Z" fill="url(#paint1_linear_26_1)"/>
<path d="M14.4809 14.7025L15.5191 16.2634C16.0952 15.8811 16.721 15.5795 17.379 15.3672L16.8022 13.5828C15.9809 13.848 15.1998 14.2248 14.4809 14.7025Z" fill="url(#paint2_linear_26_1)"/>
<path d="M12.2333 21.6655C12.4164 20.0288 13.1322 18.4976 14.2708 17.3075L12.9185 16.0078C11.4946 17.4965 10.5989 19.4117 10.3692 21.4589L12.2333 21.6655Z" fill="url(#paint3_linear_26_1)"/>
<path d="M12.1875 27.1875H10.3125V29.0625H12.1875V27.1875Z" fill="url(#paint4_linear_26_1)"/>
<path d="M12.1875 30.9375H10.3125V39.375H12.1875V30.9375Z" fill="url(#paint5_linear_26_1)"/>
<path d="M32.8125 32.8125H30.9375V35.625H32.8125V32.8125Z" fill="url(#paint6_linear_26_1)"/>
<path d="M34.6875 22.5C32.5845 22.5 30.9375 23.7355 30.9375 25.3125V28.4838L28.7461 29.5834C28.2771 29.8155 27.8826 30.1742 27.6071 30.6191C27.3316 31.0639 27.1862 31.577 27.1875 32.1002V36.5625C27.1875 36.708 27.2213 36.8516 27.2864 36.9818L28.0142 38.4375L27.2864 39.8932C27.2213 40.0234 27.1875 40.167 27.1875 40.3125V42.1875C27.1875 42.333 27.2213 42.4766 27.2864 42.6068L28.0142 44.0625L27.2864 45.5182C27.2213 45.6484 27.1875 45.792 27.1875 45.9375V47.8125C27.1875 47.958 27.2213 48.1016 27.2864 48.2318L28.0142 49.6875L27.2864 51.1432C27.2213 51.2734 27.1875 51.417 27.1875 51.5625V55.3125C27.1886 56.0581 27.4853 56.7728 28.0125 57.3C28.5397 57.8272 29.2544 58.1239 30 58.125H39.375C39.5894 58.124 39.803 58.1 40.0122 58.0532C40.6314 57.9099 41.1837 57.5608 41.5788 57.063C41.9739 56.5652 42.1885 55.9481 42.1875 55.3125V51.5625C42.1875 51.417 42.1536 51.2734 42.0886 51.1432L41.3607 49.6875L42.0886 48.2318C42.1536 48.1016 42.1875 47.958 42.1875 47.8125V45.9375C42.1875 45.792 42.1536 45.6484 42.0886 45.5182L41.3607 44.0625L42.0886 42.6068C42.1536 42.4766 42.1875 42.333 42.1875 42.1875V40.3125C42.1875 40.167 42.1536 40.0234 42.0886 39.8932L41.3607 38.4375L42.0886 36.9818C42.1536 36.8516 42.1875 36.708 42.1875 36.5625V32.1002C42.1888 31.5772 42.0436 31.0643 41.7683 30.6196C41.4929 30.1749 41.0985 29.8163 40.6297 29.5843L38.4375 28.4838V25.3125C38.4375 23.7355 36.7904 22.5 34.6875 22.5ZM34.6875 24.375C35.8319 24.375 36.5625 24.9302 36.5625 25.3125C36.5625 25.6948 35.8319 26.25 34.6875 26.25C33.543 26.25 32.8125 25.6948 32.8125 25.3125C32.8125 24.9302 33.543 24.375 34.6875 24.375ZM39.7902 31.2607C39.947 31.3378 40.0791 31.4574 40.1714 31.6058C40.2637 31.7542 40.3126 31.9255 40.3125 32.1002V36.3414L39.733 37.5H31.875V39.375H39.733L40.3125 40.5336V41.9664L39.733 43.125H31.875V45H39.733L40.3125 46.1586V47.5914L39.733 48.75H31.875V50.625H39.733L40.3125 51.7836V55.3125C40.3112 55.5215 40.2408 55.7242 40.1123 55.889C39.9838 56.0539 39.8044 56.1716 39.6021 56.2239C39.5275 56.2405 39.4514 56.2492 39.375 56.25H30C29.8553 56.2494 29.7127 56.2154 29.5833 56.1507C29.4539 56.086 29.3411 55.9923 29.2538 55.8769C29.1293 55.7151 29.062 55.5166 29.0625 55.3125V51.7836L29.9011 50.1068C29.9661 49.9766 30 49.833 30 49.6875C30 49.542 29.9661 49.3984 29.9011 49.2682L29.0625 47.5914V46.1586L29.9011 44.4818C29.9661 44.3516 30 44.208 30 44.0625C30 43.917 29.9661 43.7734 29.9011 43.6432L29.0625 41.9664V40.5336L29.9011 38.8568C29.9661 38.7266 30 38.583 30 38.4375C30 38.292 29.9661 38.1484 29.9011 38.0182L29.0625 36.3414V32.1002C29.0625 31.9252 29.1115 31.7538 29.2039 31.6052C29.2964 31.4566 29.4287 31.337 29.5857 31.2598L32.2952 29.9004C32.4507 29.8225 32.5815 29.7029 32.6729 29.5549C32.7642 29.4069 32.8126 29.2364 32.8125 29.0625V27.7458C33.4059 27.9961 34.0434 28.125 34.6875 28.125C35.3315 28.125 35.9691 27.9961 36.5625 27.7458V29.0625C36.5624 29.2364 36.6108 29.4068 36.7021 29.5548C36.7935 29.7027 36.9243 29.8223 37.0797 29.9002L39.7902 31.2607Z" fill="url(#paint7_linear_26_1)"/>
<defs>
<linearGradient id="paint0_linear_26_1" x1="45.7734" y1="12.1875" x2="45.7734" y2="58.125" gradientUnits="userSpaceOnUse">
<stop stop-color="#00A5C2"/>
<stop offset="1" stop-color="#00B2D0"/>
</linearGradient>
<linearGradient id="paint1_linear_26_1" x1="19.6683" y1="1.875" x2="19.6683" y2="58.125" gradientUnits="userSpaceOnUse">
<stop stop-color="#00A5C2"/>
<stop offset="1" stop-color="#00B2D0"/>
</linearGradient>
<linearGradient id="paint2_linear_26_1" x1="15.93" y1="13.5828" x2="15.93" y2="16.2634" gradientUnits="userSpaceOnUse">
<stop stop-color="#00A5C2"/>
<stop offset="1" stop-color="#00B2D0"/>
</linearGradient>
<linearGradient id="paint3_linear_26_1" x1="12.32" y1="16.0078" x2="12.32" y2="21.6655" gradientUnits="userSpaceOnUse">
<stop stop-color="#00A5C2"/>
<stop offset="1" stop-color="#00B2D0"/>
</linearGradient>
<linearGradient id="paint4_linear_26_1" x1="11.25" y1="27.1875" x2="11.25" y2="29.0625" gradientUnits="userSpaceOnUse">
<stop stop-color="#00A5C2"/>
<stop offset="1" stop-color="#00B2D0"/>
</linearGradient>
<linearGradient id="paint5_linear_26_1" x1="11.25" y1="30.9375" x2="11.25" y2="39.375" gradientUnits="userSpaceOnUse">
<stop stop-color="#00A5C2"/>
<stop offset="1" stop-color="#00B2D0"/>
</linearGradient>
<linearGradient id="paint6_linear_26_1" x1="31.875" y1="32.8125" x2="31.875" y2="35.625" gradientUnits="userSpaceOnUse">
<stop stop-color="#00A5C2"/>
<stop offset="1" stop-color="#00B2D0"/>
</linearGradient>
<linearGradient id="paint7_linear_26_1" x1="34.6875" y1="22.5" x2="34.6875" y2="58.125" gradientUnits="userSpaceOnUse">
<stop stop-color="#00A5C2"/>
<stop offset="1" stop-color="#00B2D0"/>
</linearGradient>
</defs>
</svg>
