<svg width="60" height="60" viewBox="0 0 60 60" fill="none" xmlns="http://www.w3.org/2000/svg">
<g clip-path="url(#clip0_23_32)">
<path d="M42.538 33.6362C42.1551 34.0481 41.9603 34.6003 42 35.1612L42.484 41.1062C42.989 47.2972 42.989 47.2972 43.238 50.4062L43.859 58.1562C43.934 59.2025 44.8101 60.0098 45.859 59.9992H56.138C57.1859 60.011 58.062 59.2054 58.138 58.1602L58.571 52.7972C59.099 46.2512 59.571 40.3462 59.999 35.1482C60.0378 34.5934 59.8447 34.0474 59.4658 33.6403C59.0869 33.2331 58.5562 33.0014 58 33.0002H44C43.4456 33.0004 42.9161 33.2308 42.538 33.6362ZM56.138 58.0002H45.854L45.232 50.2482C45.145 49.1592 45.088 48.4482 45.032 47.7262C45.291 47.7482 45.551 47.7692 45.813 47.7692C46.4542 47.7685 47.0938 47.7059 47.723 47.5822C48.919 47.2938 50.069 46.8405 51.14 46.2352C52.3386 45.4549 53.7358 45.0346 55.166 45.0242C55.8594 45.1016 56.5301 45.3179 57.138 45.6602C56.958 47.8962 56.7703 50.2222 56.575 52.6382L56.138 58.0002ZM58 35.0002C57.7833 37.6582 57.5523 40.5026 57.307 43.5332C56.6899 43.277 56.0399 43.1087 55.376 43.0332C53.433 42.8182 51.808 43.6502 50.233 44.4482C49.3237 44.9671 48.3481 45.3601 47.333 45.6162C46.5189 45.7766 45.6843 45.8056 44.861 45.7022C44.775 44.6392 44.661 43.2072 44.474 40.9412L44 35.0002H58Z" fill="url(#paint0_linear_23_32)"/>
<path d="M3.02902 16.0001C7.50002 15.9581 10.793 15.1191 13.389 13.3591C14.282 12.7591 15.111 12.0871 15.789 11.5431C16.5347 10.9044 17.3214 10.3151 18.144 9.77911C18.7295 9.41751 19.3517 9.11884 20 8.88811V13.0001H17C15.3432 13.0001 14 14.3433 14 16.0001V24.0001C14 25.657 15.3432 27.0001 17 27.0001V49.0001H16C12.1359 49.0045 9.00443 52.136 9.00002 56.0001V57.0001C9.00002 58.657 10.3432 60.0001 12 60.0001H36C37.6569 60.0001 39 58.657 39 57.0001V56.0001C38.9956 52.136 35.8642 49.0045 32 49.0001H31V27.0001C31.8485 26.9975 32.6558 26.6338 33.22 26.0001H46V28.0001C46 29.657 47.3432 31.0001 49 31.0001H54C55.6569 31.0001 57 29.657 57 28.0001V27.0001C56.9929 20.3757 51.6245 15.0073 45 15.0001H33.816C33.3938 13.8058 32.2668 13.0054 31 13.0001H28V7.96911C28.5553 7.2202 28.8877 6.32968 28.959 5.40011C28.959 5.37711 28.978 5.35911 28.981 5.33511C28.994 5.23129 29.0003 5.12674 29 5.02211V5.00011V4.98011C29 4.92211 29 4.86411 28.99 4.76011C28.9844 4.71139 28.9747 4.66322 28.961 4.61611C28.7978 2.38521 27.1641 0.538354 24.9698 0.10416C22.7755 -0.330035 20.5615 0.755479 19.561 2.75611C17.941 3.16326 16.3925 3.81508 14.969 4.68911C13.9332 5.35616 12.9414 6.08935 12 6.88411C11.3 7.44811 10.676 7.95111 10.028 8.39311C8.48902 9.43711 6.18002 9.96211 2.97102 10.0001C2.17536 10.0078 1.41533 10.3312 0.858152 10.8993C0.300973 11.4673 -0.00770893 12.2335 1.96354e-05 13.0291C0.0235926 14.6827 1.37524 16.0085 3.02902 16.0001ZM37 56.0001V57.0001C37 57.5524 36.5523 58.0001 36 58.0001H12C11.4477 58.0001 11 57.5524 11 57.0001V56.0001C11.0033 53.2401 13.24 51.0034 16 51.0001H32C34.7601 51.0034 36.9967 53.2401 37 56.0001ZM29 49.0001H19V27.0001H29V49.0001ZM55 27.0001V28.0001C55 28.5524 54.5523 29.0001 54 29.0001H49C48.4477 29.0001 48 28.5524 48 28.0001V26.0001C48 24.8955 47.1046 24.0001 46 24.0001H34V17.0001H45C50.5204 17.0062 54.994 21.4798 55 27.0001ZM32 16.0001V24.0001C32 24.5524 31.5523 25.0001 31 25.0001H17C16.4477 25.0001 16 24.5524 16 24.0001V16.0001C16 15.4478 16.4477 15.0001 17 15.0001H31C31.5523 15.0001 32 15.4478 32 16.0001ZM22 13.0001V9.57611C23.2734 10.1414 24.7266 10.1414 26 9.57611V13.0001H22ZM24 2.00011C25.6487 2.00007 26.9885 3.33047 27 4.97911V5.01711C26.9906 6.67172 25.6434 8.00633 23.9888 8.00009C22.3341 7.99385 20.997 6.64911 21.0001 4.99448C21.0032 3.33985 22.3454 2.00014 24 2.00011ZM2.28602 12.3001C2.47128 12.109 2.72586 12.0008 2.99202 12.0001C6.60802 11.9581 9.27702 11.3191 11.153 10.0461C11.866 9.56111 12.529 9.03011 13.331 8.37911C14.184 7.65959 15.0818 6.99492 16.019 6.38911C16.9548 5.81094 17.9554 5.34474 19 5.00011C19.0007 5.67886 19.1402 6.3503 19.41 6.97311C18.5962 7.25597 17.8159 7.62719 17.083 8.08011C16.1875 8.65982 15.3316 9.29857 14.521 9.99211C13.852 10.5341 13.092 11.1471 12.269 11.7021C10.012 13.2321 7.07002 13.9621 3.00002 14.0001C2.5974 14.0001 2.23409 13.7586 2.07818 13.3873C1.92227 13.0161 2.00419 12.5876 2.28602 12.3001Z" fill="url(#paint1_linear_23_32)"/>
<path d="M22 33.0002C22.5523 33.0002 23 32.5525 23 32.0002V30.0002C23 29.448 22.5523 29.0002 22 29.0002C21.4477 29.0002 21 29.448 21 30.0002V32.0002C21 32.5525 21.4477 33.0002 22 33.0002Z" fill="url(#paint2_linear_23_32)"/>
<path d="M22 47.0002C22.5523 47.0002 23 46.5525 23 46.0002V36.0002C23 35.448 22.5523 35.0002 22 35.0002C21.4477 35.0002 21 35.448 21 36.0002V46.0002C21 46.5525 21.4477 47.0002 22 47.0002Z" fill="url(#paint3_linear_23_32)"/>
</g>
<defs>
<linearGradient id="paint0_linear_23_32" x1="50.9994" y1="33.0002" x2="50.9994" y2="59.9994" gradientUnits="userSpaceOnUse">
<stop stop-color="#00A5C2"/>
<stop offset="1" stop-color="#00B2D0"/>
</linearGradient>
<linearGradient id="paint1_linear_23_32" x1="28.5" y1="0.00927734" x2="28.5" y2="60.0001" gradientUnits="userSpaceOnUse">
<stop stop-color="#00A5C2"/>
<stop offset="1" stop-color="#00B2D0"/>
</linearGradient>
<linearGradient id="paint2_linear_23_32" x1="22" y1="29.0002" x2="22" y2="33.0002" gradientUnits="userSpaceOnUse">
<stop stop-color="#00A5C2"/>
<stop offset="1" stop-color="#00B2D0"/>
</linearGradient>
<linearGradient id="paint3_linear_23_32" x1="22" y1="35.0002" x2="22" y2="47.0002" gradientUnits="userSpaceOnUse">
<stop stop-color="#00A5C2"/>
<stop offset="1" stop-color="#00B2D0"/>
</linearGradient>
<clipPath id="clip0_23_32">
<rect width="60" height="60" fill="white"/>
</clipPath>
</defs>
</svg>
