<svg width="30" height="30" viewBox="0 0 30 30" fill="none" xmlns="http://www.w3.org/2000/svg">
<path d="M26.4563 9.97857L23.7813 18.3478C23.5813 18.942 23.0564 19.3382 22.4314 19.3382H12.1063C11.5063 19.3382 10.9313 18.9668 10.7313 18.422L6.80635 7.94819H4.50635C3.95635 7.94819 3.50635 7.50249 3.50635 6.95775C3.50635 6.41301 3.95635 5.96731 4.50635 5.96731H7.48135C7.90635 5.96731 8.28135 6.23967 8.43135 6.63584L12.5063 17.3326H22.0063L24.1313 10.6471H12.3563C11.8063 10.6471 11.3563 10.2014 11.3563 9.65667C11.3563 9.11193 11.8063 8.66623 12.3563 8.66623H25.5063C25.8313 8.66623 26.1314 8.83954 26.3064 9.08715C26.5064 9.33476 26.5563 9.68144 26.4563 9.97857ZM12.6063 20.6258C12.1813 20.6258 11.7563 20.7991 11.4563 21.0962C11.1563 21.3933 10.9813 21.8143 10.9813 22.2352C10.9813 22.6562 11.1563 23.0771 11.4563 23.3742C11.7563 23.6713 12.1813 23.8447 12.6063 23.8447C13.0313 23.8447 13.4563 23.6713 13.7563 23.3742C14.0563 23.0771 14.2313 22.6562 14.2313 22.2352C14.2313 21.8143 14.0563 21.3933 13.7563 21.0962C13.4563 20.7991 13.0313 20.6258 12.6063 20.6258ZM21.5813 20.6258C21.1563 20.6258 20.7313 20.7991 20.4314 21.0962C20.1314 21.3933 19.9563 21.8143 19.9563 22.2352C19.9563 22.6562 20.1314 23.0771 20.4314 23.3742C20.7313 23.6713 21.1563 23.8447 21.5813 23.8447C22.0063 23.8447 22.4314 23.6713 22.7314 23.3742C23.0314 23.0771 23.2063 22.6562 23.2063 22.2352C23.2063 21.8143 23.0314 21.3933 22.7314 21.0962C22.4314 20.7991 22.0063 20.6258 21.5813 20.6258Z" fill="#00B2D0"/>
</svg>
