<svg width="28" height="28" viewBox="0 0 28 28" fill="none" xmlns="http://www.w3.org/2000/svg">
<path d="M24.6926 9.4033L22.1959 17.29C22.0093 17.85 21.5193 18.2233 20.9359 18.2233H11.2993C10.7393 18.2233 10.2026 17.8733 10.0159 17.3599L6.35262 7.48998H4.20595C3.69261 7.48998 3.27261 7.06998 3.27261 6.55665C3.27261 6.04331 3.69261 5.62331 4.20595 5.62331H6.98261C7.37928 5.62331 7.72928 5.87997 7.86928 6.2533L11.6726 16.3333H20.5393L22.5226 10.0333H11.5326C11.0193 10.0333 10.5993 9.61329 10.5993 9.09996C10.5993 8.58662 11.0193 8.16662 11.5326 8.16662H23.8059C24.1093 8.16662 24.3893 8.32995 24.5526 8.56328C24.7393 8.79661 24.7859 9.1233 24.6926 9.4033ZM11.7659 19.4366C11.3693 19.4366 10.9726 19.5999 10.6926 19.8799C10.4126 20.1599 10.2493 20.5566 10.2493 20.9533C10.2493 21.35 10.4126 21.7466 10.6926 22.0266C10.9726 22.3066 11.3693 22.47 11.7659 22.47C12.1626 22.47 12.5593 22.3066 12.8393 22.0266C13.1193 21.7466 13.2826 21.35 13.2826 20.9533C13.2826 20.5566 13.1193 20.1599 12.8393 19.8799C12.5593 19.5999 12.1626 19.4366 11.7659 19.4366ZM20.1426 19.4366C19.7459 19.4366 19.3493 19.5999 19.0693 19.8799C18.7893 20.1599 18.6259 20.5566 18.6259 20.9533C18.6259 21.35 18.7893 21.7466 19.0693 22.0266C19.3493 22.3066 19.7459 22.47 20.1426 22.47C20.5393 22.47 20.936 22.3066 21.216 22.0266C21.496 21.7466 21.6593 21.35 21.6593 20.9533C21.6593 20.5566 21.496 20.1599 21.216 19.8799C20.936 19.5999 20.5393 19.4366 20.1426 19.4366Z" fill="white"/>
</svg>
