<svg width="20" height="20" viewBox="0 0 20 20" fill="none" xmlns="http://www.w3.org/2000/svg">
<path d="M18 0H2C0.895431 0 0 0.895431 0 2V18C0 19.1046 0.895431 20 2 20H18C19.1046 20 20 19.1046 20 18V2C20 0.895431 19.1046 0 18 0Z" fill="#44678D"/>
<path d="M6.33524 7.01061C6.70034 7.91648 7.16305 8.77056 7.77248 9.53728C7.85331 9.63931 7.9552 9.73002 8.06253 9.80388C8.21931 9.91206 8.36723 9.87404 8.43098 9.69385C8.4984 9.50477 8.56028 9.12156 8.56395 8.923C8.57402 8.40417 8.56245 8.06415 8.5347 7.54597C8.51672 7.21407 8.39929 6.92265 7.91338 6.83469C7.76332 6.80742 7.74938 6.68332 7.84579 6.55953C8.04649 6.30179 8.32608 6.26072 8.62927 6.24446C9.12066 6.2178 9.61386 6.23956 10.1059 6.24446C10.3063 6.24631 10.5079 6.26253 10.7052 6.30576C10.9626 6.36215 11.1005 6.54358 11.1429 6.79607C11.1649 6.92631 11.1762 7.06022 11.1731 7.19201C11.1603 7.75833 11.1332 8.32434 11.1267 8.89035C11.124 9.11252 11.1402 9.34023 11.1875 9.55659C11.2536 9.85812 11.458 9.93382 11.6669 9.71595C11.9323 9.43924 12.1663 9.12787 12.3858 8.81163C12.7848 8.23641 13.0828 7.60514 13.3393 6.95426C13.472 6.6184 13.5736 6.54546 13.9332 6.54455C14.6091 6.543 15.285 6.5424 15.9609 6.54455C16.0808 6.54515 16.2061 6.55651 16.3193 6.59268C16.5029 6.65152 16.5758 6.80198 16.5328 6.99291C16.4324 7.44034 16.1918 7.82063 15.9341 8.18624C15.5205 8.77277 15.087 9.34524 14.6637 9.92502C14.6097 9.99887 14.5621 10.0776 14.5179 10.1576C14.3596 10.4451 14.3706 10.6062 14.6015 10.8456C14.969 11.2265 15.3625 11.5829 15.7184 11.9742C15.9771 12.2589 16.2165 12.5678 16.4215 12.8929C16.6808 13.3042 16.5206 13.6915 16.0363 13.7605C15.7316 13.8037 14.2431 13.7608 14.1662 13.7605C13.7661 13.7587 13.4153 13.6192 13.1328 13.3462C12.8187 13.0422 12.5332 12.7087 12.2315 12.3916C12.1406 12.2959 12.0436 12.2043 11.939 12.1243C11.6923 11.9352 11.4501 11.9772 11.3348 12.2684C11.2363 12.5185 11.1512 13.1751 11.1472 13.2312C11.1264 13.5245 10.9407 13.7114 10.6137 13.7295C9.66969 13.781 8.75493 13.6753 7.90275 13.2165C7.18047 12.8279 6.6037 12.2785 6.10408 11.6377C5.31044 10.6199 4.68356 9.50117 4.11124 8.34956C4.08199 8.29069 3.50231 7.05139 3.48673 6.99285C3.43495 6.79684 3.48326 6.6096 3.64809 6.54515C3.75085 6.50499 5.66207 6.54502 5.69386 6.54673C5.99882 6.56332 6.20677 6.69259 6.33524 7.01061Z" fill="white"/>
</svg>
