<svg width="50" height="50" viewBox="0 0 50 50" fill="none" xmlns="http://www.w3.org/2000/svg">
<g clip-path="url(#clip0_6_291)">
<path d="M0.820068 24.9889H0.849234C1.2986 24.9892 1.66724 24.6331 1.68255 24.1839C2.13337 11.3055 12.9389 1.23091 25.8173 1.68163C30.771 1.85506 35.5406 3.60138 39.435 6.66766H35.0001C34.5399 6.66766 34.1668 7.04078 34.1668 7.50098C34.1668 7.96118 34.5399 8.33429 35.0001 8.33429H41.6666H41.6783C41.7435 8.32898 41.8078 8.31617 41.87 8.29596C41.9126 8.28981 41.9546 8.28065 41.9958 8.26846C42.0191 8.25846 42.0366 8.23763 42.0591 8.22513C42.1339 8.18857 42.2026 8.14044 42.2625 8.08263L42.2708 8.0768C42.2919 8.04784 42.3112 8.01753 42.3283 7.98597C42.3719 7.93284 42.4087 7.8743 42.4375 7.8118C42.4604 7.74535 42.4744 7.67618 42.4791 7.60598C42.4887 7.5716 42.4957 7.5365 42.5 7.50098V0.834463C42.5 0.374265 42.1268 0.00114883 41.6666 0.00114883C41.2065 0.00114883 40.8333 0.374265 40.8333 0.834463V5.66102C30.1564 -3.08691 14.4092 -1.52319 5.66131 9.15386C2.1892 13.3917 0.205707 18.6529 0.0159192 24.1281C0.000502931 24.5878 0.360391 24.9731 0.820068 24.9889Z" fill="#BFF5FF"/>
<path d="M7.56658 40.5077C7.26075 40.1625 6.73306 40.1307 6.38786 40.4365C6.04266 40.7423 6.01078 41.27 6.31661 41.6152C6.89024 42.2589 7.49627 42.8731 8.1324 43.4551C8.47833 43.7588 9.00478 43.7244 9.30841 43.3786C9.60341 43.0425 9.58049 42.5335 9.25654 42.2252C8.66426 41.682 8.10021 41.1088 7.56658 40.5077Z" fill="#BFF5FF"/>
<path d="M17.5114 47.1059C16.7495 46.848 16.0016 46.5506 15.2706 46.2151C14.8582 46.0108 14.3582 46.1796 14.1539 46.592C13.9497 47.0043 14.1184 47.5043 14.5308 47.7086C14.545 47.7156 14.5593 47.7222 14.5739 47.7284C15.3577 48.0892 16.1599 48.4085 16.9772 48.685C17.4132 48.8325 17.8863 48.5986 18.0338 48.1625C18.1814 47.7265 17.9475 47.2534 17.5114 47.1059Z" fill="#BFF5FF"/>
<path d="M13.134 45.0951V45.0943C12.4414 44.684 11.77 44.239 11.1223 43.761C10.761 43.4759 10.237 43.5378 9.95193 43.8991C9.66683 44.2605 9.72871 44.7844 10.0901 45.0695C10.1036 45.0801 10.1173 45.0904 10.1315 45.1002C10.8242 45.613 11.5426 46.09 12.284 46.5294C12.68 46.764 13.1913 46.6333 13.426 46.2373C13.6608 45.8411 13.53 45.3298 13.134 45.0951Z" fill="#BFF5FF"/>
<path d="M6.05747 38.6269C5.58769 37.9738 5.15166 37.2971 4.75084 36.5995C4.52074 36.2002 4.01054 36.0631 3.61128 36.2932C3.21202 36.5233 3.07494 37.0335 3.30504 37.4328C3.7344 38.1787 4.20168 38.9021 4.705 39.6002C4.98135 39.9683 5.50374 40.0425 5.87175 39.7662C6.22924 39.4977 6.31122 38.9951 6.05747 38.6269Z" fill="#BFF5FF"/>
<path d="M3.73311 34.7926C3.73311 34.6765 3.70873 34.5616 3.66175 34.4555L3.66009 34.4496C3.33395 33.7151 3.04604 32.964 2.79761 32.1997C2.67678 31.7556 2.21877 31.4936 1.77471 31.6145C1.33066 31.7353 1.06858 32.1933 1.18952 32.6374C1.1966 32.6632 1.20483 32.6887 1.21431 32.7138C1.48024 33.5348 1.78846 34.3414 2.13762 35.1304C2.27126 35.4321 2.57022 35.6265 2.9001 35.6263C3.3603 35.6261 3.73321 35.2528 3.73311 34.7926Z" fill="#BFF5FF"/>
<path d="M1.53297 30.8556C1.53308 30.8556 1.53329 30.8555 1.53339 30.8555C1.98307 30.7596 2.27015 30.3178 2.17504 29.868C2.00901 29.0808 1.88328 28.2856 1.79838 27.4855C1.74984 27.0276 1.33923 26.6958 0.881323 26.7443C0.423417 26.7928 0.0915491 27.2034 0.14009 27.6614C0.231338 28.5183 0.366439 29.37 0.54508 30.213C0.640495 30.6633 1.08278 30.9509 1.53297 30.8556Z" fill="#BFF5FF"/>
<path d="M48.6675 30.0048C48.6672 30.0047 48.6669 30.0047 48.6666 30.0046C48.2199 29.894 47.7682 30.1663 47.6574 30.6129C47.4643 31.3942 47.231 32.1649 46.9583 32.9221C46.8023 33.3552 47.0268 33.8327 47.4599 33.9887C47.8931 34.1447 48.3705 33.9201 48.5266 33.487C48.819 32.6761 49.0693 31.8505 49.2765 31.0138C49.387 30.567 49.1143 30.1154 48.6675 30.0048Z" fill="#BFF5FF"/>
<path d="M22.2096 48.1667C21.4109 48.0716 20.6176 47.9354 19.833 47.7584C19.384 47.6569 18.9378 47.9386 18.8363 48.3875C18.7349 48.8365 19.0165 49.2827 19.4655 49.3842C20.3065 49.5738 21.1568 49.7198 22.0129 49.8217C22.0462 49.8257 22.0795 49.8276 22.1129 49.8275C22.5731 49.8266 22.9454 49.4526 22.9445 48.9924C22.9436 48.571 22.6282 48.2165 22.2096 48.1667Z" fill="#BFF5FF"/>
<path d="M47.1308 34.7579C46.7165 34.5579 46.2186 34.7313 46.0182 35.1454C45.6679 35.8697 45.2802 36.5754 44.8566 37.2595C44.621 37.6549 44.7505 38.1663 45.1459 38.4018C45.5317 38.6317 46.0303 38.5145 46.2732 38.137C46.7267 37.4037 47.142 36.6474 47.5173 35.8712C47.7181 35.457 47.5449 34.9586 47.1308 34.7579Z" fill="#BFF5FF"/>
<path d="M44.6689 39.0918C44.3087 38.8054 43.7844 38.8652 43.498 39.2255C43.493 39.2317 43.4881 39.2381 43.4833 39.2444V39.2428C42.9916 39.8806 42.4674 40.4924 41.9125 41.076C41.5952 41.4097 41.6084 41.9375 41.9421 42.2548C42.2757 42.572 42.8035 42.5588 43.1208 42.2252C43.7141 41.5999 44.2754 40.9449 44.8024 40.2627C45.0889 39.9025 45.0291 39.3783 44.6689 39.0918Z" fill="#BFF5FF"/>
<path d="M49.1806 25.0398C48.7279 25.0166 48.3421 25.365 48.3191 25.8177C48.3187 25.8261 48.3184 25.8346 48.3182 25.8431C48.2899 26.6472 48.22 27.4494 48.109 28.2463C48.0462 28.7016 48.3639 29.1217 48.819 29.1855C48.8576 29.1911 48.8966 29.1939 48.9356 29.1938C49.3509 29.1932 49.7025 28.8868 49.7598 28.4755C49.8784 27.6219 49.9532 26.7627 49.9839 25.9014C49.9999 25.4417 49.6404 25.056 49.1806 25.0398Z" fill="#BFF5FF"/>
<path d="M40.1667 42.7335V42.736C39.5533 43.2595 38.9137 43.7513 38.25 44.2093C37.8706 44.4716 37.7757 44.9919 38.0379 45.3714C38.3002 45.7508 38.8205 45.8457 39.2 45.5834C39.9097 45.0906 40.5938 44.5622 41.25 44.0001C41.5998 43.701 41.6408 43.175 41.3416 42.8252C41.0426 42.4754 40.5164 42.4343 40.1667 42.7335Z" fill="#BFF5FF"/>
<path d="M31.7594 47.3401C30.9893 47.5721 30.2077 47.764 29.4178 47.9151C28.9658 48.002 28.6699 48.4388 28.7568 48.8908C28.8321 49.2825 29.1746 49.5659 29.5736 49.5667C29.6264 49.5669 29.6791 49.5621 29.7311 49.5525C30.5779 49.3906 31.4157 49.1846 32.241 48.935C32.6781 48.791 32.9157 48.3198 32.7716 47.8828C32.6327 47.4611 32.1875 47.2225 31.7594 47.3401Z" fill="#BFF5FF"/>
<path d="M27.0711 48.2429C27.0558 48.2437 27.0406 48.245 27.0254 48.2467L27.0296 48.25C26.3629 48.3067 25.6804 48.3334 25.0004 48.3334H24.6196C24.1651 48.3398 23.7937 48.6977 23.7705 49.1517C23.7621 49.6119 24.1284 49.9917 24.5885 50C24.5886 50 24.5887 50 24.5888 50H25.0004C25.7288 50 26.4587 49.9675 27.1671 49.9067C27.6265 49.8802 27.9776 49.4863 27.951 49.0268C27.9244 48.5673 27.5305 48.2163 27.0711 48.2429Z" fill="#BFF5FF"/>
<path d="M36.1993 45.4743H36.2001C35.4946 45.8606 34.7698 46.2105 34.0285 46.5226C33.602 46.6956 33.3965 47.1815 33.5694 47.608C33.7423 48.0344 34.2284 48.2399 34.6548 48.067C34.6611 48.0645 34.6672 48.0619 34.6734 48.0592C35.4677 47.7249 36.2443 47.3501 37 46.9359C37.4036 46.7148 37.5515 46.2083 37.3304 45.8047C37.1094 45.401 36.6029 45.2531 36.1993 45.4743Z" fill="#BFF5FF"/>
<path d="M25.0003 7.50098C15.3356 7.50098 7.50073 15.3358 7.50073 25.0006C7.50073 34.6653 15.3356 42.5002 25.0003 42.5002C34.6651 42.5002 42.4999 34.6653 42.4999 25.0006C42.489 15.3404 34.6605 7.51202 25.0003 7.50098ZM38.3334 25.8339H40.7908C40.3579 33.9084 33.9081 40.3581 25.8336 40.791V38.3336C25.8336 37.8734 25.4605 37.5003 25.0003 37.5003C24.5401 37.5003 24.167 37.8734 24.167 38.3336V40.791C16.0925 40.3581 9.64277 33.9084 9.20986 25.8339H11.6673C12.1275 25.8339 12.5006 25.4608 12.5006 25.0006C12.5006 24.5404 12.1275 24.1673 11.6673 24.1673H9.20986C9.64277 16.0928 16.0925 9.64301 24.167 9.2101V11.6675C24.167 12.1277 24.5401 12.5009 25.0003 12.5009C25.4605 12.5009 25.8336 12.1277 25.8336 11.6675V9.2101C33.9081 9.64301 40.3579 16.0928 40.7908 24.1673H38.3334C37.8732 24.1673 37.5 24.5404 37.5 25.0006C37.5 25.4608 37.8732 25.8339 38.3334 25.8339Z" fill="#BFF5FF"/>
<path d="M25.8337 22.654V15.0008C25.8337 14.5406 25.4605 14.1675 25.0003 14.1675C24.5401 14.1675 24.167 14.5406 24.167 15.0008V22.654C23.4613 22.906 22.9058 23.4616 22.6537 24.1673H18.3338C17.8736 24.1673 17.5005 24.5404 17.5005 25.0006C17.5005 25.4608 17.8736 25.8339 18.3338 25.8339H22.6537C23.1104 27.1334 24.5341 27.8168 25.8337 27.3601C27.1332 26.9035 27.8165 25.4797 27.3599 24.1802C27.109 23.4662 26.5476 22.9049 25.8337 22.654ZM25.0003 25.8339C24.5401 25.8339 24.167 25.4608 24.167 25.0006C24.167 24.5404 24.5401 24.1673 25.0003 24.1673C25.4605 24.1673 25.8337 24.5404 25.8337 25.0006C25.8337 25.4608 25.4606 25.8339 25.0003 25.8339Z" fill="#BFF5FF"/>
</g>
<defs>
<clipPath id="clip0_6_291">
<rect width="50" height="50" fill="white"/>
</clipPath>
</defs>
</svg>
