<svg width="60" height="60" viewBox="0 0 60 60" fill="none" xmlns="http://www.w3.org/2000/svg">
<g clip-path="url(#clip0_23_21)">
<path d="M12 18.4998C12.006 17.1215 13.1218 16.0058 14.5 15.9998C15.0523 15.9998 15.5 15.552 15.5 14.9998C15.5 14.4475 15.0523 13.9998 14.5 13.9998C12.017 14.0053 10.0055 16.0168 10 18.4998C10 19.052 10.4477 19.4998 11 19.4998C11.5523 19.4998 12 19.052 12 18.4998Z" fill="url(#paint0_linear_23_21)"/>
<path d="M51.674 16H30.608C29.7731 13.4652 27.8186 11.4553 25.308 10.55C24.5433 10.2995 24.0193 9.59446 24 8.79V7.722C24.6168 7.36759 24.9979 6.71133 25 6V3C25 1.34315 23.6569 0 22 0H15C13.3432 0 12 1.34315 12 3V6C12.0022 6.71133 12.3833 7.36759 13 7.722V8.73C12.9777 9.5455 12.4397 10.2567 11.661 10.5C8.87387 11.4856 6.7999 13.8498 6.18563 16.7416C5.57136 19.6334 6.5052 22.6365 8.65101 24.67C9.29629 25.2647 9.62756 26.1262 9.54701 27C9.4677 27.8049 9.00882 28.5235 8.31201 28.934L8.26301 28.972C6.86061 29.8499 6.00633 31.3855 6.00001 33.04V56C6.00001 58.2091 7.79087 60 10 60H27C27.1509 59.9973 27.3015 59.9856 27.451 59.965C27.5702 59.9863 27.6909 59.998 27.812 60H49.188C50.4119 60.0022 51.4273 59.0541 51.509 57.833L54 18.458C54.0392 17.8223 53.8145 17.1987 53.379 16.734C52.936 16.2649 52.3192 15.9994 51.674 16ZM51.916 18.1C51.9749 18.1603 52.0052 18.2429 51.999 18.327L51.286 29.627C49.8038 29.2839 48.2864 29.116 46.765 29.127C42.528 29.127 39.17 30.757 35.922 32.333C32.974 33.764 29.922 35.226 26.09 35.584L25 18.331C24.9939 18.2469 25.0241 18.1643 25.083 18.104C25.1459 18.038 25.2338 18.0017 25.325 18.004H51.674C51.7646 18.0006 51.8524 18.0355 51.916 18.1ZM8.00001 36H24.113L24.933 49H8.00001V36ZM14 3C14 2.44772 14.4477 2 15 2H22C22.5523 2 23 2.44772 23 3V6H14V3ZM9.36701 30.638L9.42001 30.598C10.6168 29.8563 11.3995 28.5992 11.537 27.198C11.6828 25.7081 11.1251 24.2356 10.029 23.216C8.38846 21.6614 7.67438 19.3655 8.14374 17.1546C8.61309 14.9438 10.1984 13.136 12.329 12.382C13.9087 11.8611 14.9823 10.3933 15 8.73V8H22V8.79C22.0111 10.4387 23.065 11.8995 24.626 12.43C26.3396 13.0488 27.7282 14.3373 28.473 16H25.326C24.6826 16.0008 24.0678 16.2662 23.626 16.734C23.1905 17.1987 22.9658 17.8223 23.005 18.458L23.986 34H8.00001V33.04C8.00908 32.0567 8.52621 31.148 9.36701 30.638ZM8.00001 56V51H25.06L25.491 57.832C25.491 57.89 25.51 57.944 25.518 58H10C8.89544 58 8.00001 57.1046 8.00001 56ZM49.513 57.707C49.4983 57.8748 49.3564 58.0027 49.188 58H27.812C27.6432 58.0027 27.5012 57.8742 27.487 57.706L26.216 37.577C30.424 37.2 33.665 35.65 36.795 34.131C39.98 32.585 42.988 31.125 46.765 31.125C48.2464 31.1135 49.723 31.296 51.157 31.668L49.513 57.707Z" fill="url(#paint1_linear_23_21)"/>
<path d="M28 22H30C30.5523 22 31 21.5523 31 21C31 20.4477 30.5523 20 30 20H28C27.4477 20 27 20.4477 27 21C27 21.5523 27.4477 22 28 22Z" fill="url(#paint2_linear_23_21)"/>
<path d="M34 22H46C46.5523 22 47 21.5523 47 21C47 20.4477 46.5523 20 46 20H34C33.4477 20 33 20.4477 33 21C33 21.5523 33.4477 22 34 22Z" fill="url(#paint3_linear_23_21)"/>
<path d="M43.5 35C41.567 35 40 36.567 40 38.5C40 40.433 41.567 42 43.5 42C45.433 42 47 40.433 47 38.5C47 36.567 45.433 35 43.5 35ZM43.5 40C42.6716 40 42 39.3284 42 38.5C42 37.6716 42.6716 37 43.5 37C44.3284 37 45 37.6716 45 38.5C45 39.3284 44.3284 40 43.5 40Z" fill="url(#paint4_linear_23_21)"/>
<path d="M35 41C33.3432 41 32 42.3431 32 44C32 45.6568 33.3432 47 35 47C36.6569 47 38 45.6568 38 44C38 42.3431 36.6569 41 35 41ZM35 45C34.4477 45 34 44.5523 34 44C34 43.4477 34.4477 43 35 43C35.5523 43 36 43.4477 36 44C36 44.5523 35.5523 45 35 45Z" fill="url(#paint5_linear_23_21)"/>
<path d="M41 50C41.5523 50 42 49.5523 42 49C42 48.4477 41.5523 48 41 48C40.4477 48 40 48.4477 40 49C40 49.5523 40.4477 50 41 50Z" fill="url(#paint6_linear_23_21)"/>
<path d="M39 55C39.5523 55 40 54.5523 40 54C40 53.4477 39.5523 53 39 53C38.4477 53 38 53.4477 38 54C38 54.5523 38.4477 55 39 55Z" fill="url(#paint7_linear_23_21)"/>
</g>
<defs>
<linearGradient id="paint0_linear_23_21" x1="12.75" y1="13.9998" x2="12.75" y2="19.4998" gradientUnits="userSpaceOnUse">
<stop stop-color="#00A5C2"/>
<stop offset="1" stop-color="#00B2D0"/>
</linearGradient>
<linearGradient id="paint1_linear_23_21" x1="30.0022" y1="0" x2="30.0022" y2="60" gradientUnits="userSpaceOnUse">
<stop stop-color="#00A5C2"/>
<stop offset="1" stop-color="#00B2D0"/>
</linearGradient>
<linearGradient id="paint2_linear_23_21" x1="29" y1="20" x2="29" y2="22" gradientUnits="userSpaceOnUse">
<stop stop-color="#00A5C2"/>
<stop offset="1" stop-color="#00B2D0"/>
</linearGradient>
<linearGradient id="paint3_linear_23_21" x1="40" y1="20" x2="40" y2="22" gradientUnits="userSpaceOnUse">
<stop stop-color="#00A5C2"/>
<stop offset="1" stop-color="#00B2D0"/>
</linearGradient>
<linearGradient id="paint4_linear_23_21" x1="43.5" y1="35" x2="43.5" y2="42" gradientUnits="userSpaceOnUse">
<stop stop-color="#00A5C2"/>
<stop offset="1" stop-color="#00B2D0"/>
</linearGradient>
<linearGradient id="paint5_linear_23_21" x1="35" y1="41" x2="35" y2="47" gradientUnits="userSpaceOnUse">
<stop stop-color="#00A5C2"/>
<stop offset="1" stop-color="#00B2D0"/>
</linearGradient>
<linearGradient id="paint6_linear_23_21" x1="41" y1="48" x2="41" y2="50" gradientUnits="userSpaceOnUse">
<stop stop-color="#00A5C2"/>
<stop offset="1" stop-color="#00B2D0"/>
</linearGradient>
<linearGradient id="paint7_linear_23_21" x1="39" y1="53" x2="39" y2="55" gradientUnits="userSpaceOnUse">
<stop stop-color="#00A5C2"/>
<stop offset="1" stop-color="#00B2D0"/>
</linearGradient>
<clipPath id="clip0_23_21">
<rect width="60" height="60" fill="white"/>
</clipPath>
</defs>
</svg>
