<svg width="60" height="60" viewBox="0 0 60 60" fill="none" xmlns="http://www.w3.org/2000/svg">
<g clip-path="url(#clip0_23_17)">
<path d="M44.4858 20.3037C44.4858 14.7617 40.2134 10.1995 34.7895 9.73603V7.63968H36.7875C37.2907 7.63968 37.6984 7.23182 37.6984 6.72874C37.6984 6.22567 37.2907 5.81781 36.7875 5.81781H36.7287V2.85425C36.7287 1.2804 35.4483 0 33.8745 0H26.1255C24.5516 0 23.2712 1.2804 23.2712 2.85425V5.81781H23.2126C22.7094 5.81781 22.3016 6.22567 22.3016 6.72874C22.3016 7.23182 22.7094 7.63968 23.2126 7.63968H25.2105V9.73591C19.7866 10.1995 15.5142 14.7616 15.5142 20.3036V21.2732C15.5142 21.6284 15.615 21.9598 15.787 22.2435C15.6152 22.5274 15.5142 22.859 15.5142 23.2144V34.8462C15.5142 35.3433 15.7093 35.7947 16.0252 36.1315C15.7036 36.593 15.5142 37.1532 15.5142 37.7571V39.6964C15.5142 40.4447 15.8041 41.1266 16.2775 41.6356C15.8041 42.1447 15.5142 42.8266 15.5142 43.5749V45.5143C15.5142 46.2626 15.8041 46.9444 16.2775 47.4536C15.8041 47.9626 15.5142 48.6446 15.5142 49.3927V51.3321C15.5142 52.0804 15.8041 52.7622 16.2775 53.2714C15.8041 53.7804 15.5142 54.4624 15.5142 55.2106C15.5142 57.8515 17.6627 60.0001 20.3038 60.0001H39.6964C42.3374 60.0001 44.486 57.8515 44.486 55.2106C44.486 54.4623 44.196 53.7804 43.7227 53.2714C44.1962 52.7623 44.486 52.0804 44.486 51.3321V49.3927C44.486 48.6445 44.196 47.9626 43.7227 47.4536C44.1962 46.9445 44.486 46.2626 44.486 45.5143V43.5749C44.486 42.8266 44.196 42.1448 43.7227 41.6356C44.1962 41.1266 44.486 40.4447 44.486 39.6964V37.7571C44.486 37.1532 44.2966 36.5931 43.975 36.1315C44.2909 35.7947 44.486 35.3433 44.486 34.8462V23.2145C44.486 22.859 44.3852 22.5276 44.2132 22.2436C44.385 21.9599 44.486 21.6285 44.486 21.2733V20.3037H44.4858ZM25.0931 2.85425C25.0931 2.28498 25.5563 1.82186 26.1255 1.82186H33.8745C34.4437 1.82186 34.9069 2.28498 34.9069 2.85425V5.81781H25.0931V2.85425ZM32.9677 7.63968V9.69644H27.0324V7.63968H32.9677ZM42.664 39.6964C42.664 40.2634 42.2027 40.7247 41.6356 40.7247C41.1324 40.7247 40.7247 41.1325 40.7247 41.6356C40.7247 42.1387 41.1324 42.5466 41.6356 42.5466C42.2027 42.5466 42.664 43.0079 42.664 43.5749V45.5143C42.664 46.0812 42.2027 46.5426 41.6356 46.5426H22.243C21.7398 46.5426 21.332 46.9505 21.332 47.4536C21.332 47.9566 21.7398 48.3645 22.243 48.3645H41.6356C42.2027 48.3645 42.664 48.8258 42.664 49.3927V51.3321C42.664 51.8992 42.2027 52.3604 41.6356 52.3604C41.1324 52.3604 40.7247 52.7683 40.7247 53.2714C40.7247 53.7745 41.1324 54.1823 41.6356 54.1823C42.2027 54.1823 42.664 54.6436 42.664 55.2106C42.664 56.847 41.3327 58.1783 39.6963 58.1783H20.3037C18.6673 58.1783 17.336 56.847 17.336 55.2106C17.336 54.6436 17.7973 54.1823 18.3643 54.1823H37.757C38.2602 54.1823 38.6679 53.7745 38.6679 53.2714C38.6679 52.7683 38.2602 52.3604 37.757 52.3604H18.3643C17.7973 52.3604 17.336 51.8992 17.336 51.3321V49.3927C17.336 48.8257 17.7973 48.3645 18.3643 48.3645C18.8675 48.3645 19.2753 47.9566 19.2753 47.4536C19.2753 46.9505 18.8675 46.5426 18.3643 46.5426C17.7973 46.5426 17.336 46.0813 17.336 45.5143V43.5749C17.336 43.0079 17.7973 42.5466 18.3643 42.5466H37.757C38.2602 42.5466 38.6679 42.1387 38.6679 41.6356C38.6679 41.1325 38.2602 40.7247 37.757 40.7247H18.3643C17.7973 40.7247 17.336 40.2634 17.336 39.6964V37.7571C17.336 37.19 17.7973 36.7287 18.3643 36.7287H23.9612C24.4644 36.7287 24.8722 36.3209 24.8722 35.8178C24.8722 35.3147 24.4644 34.9069 23.9612 34.9069H17.3967C17.3633 34.9069 17.336 34.8797 17.336 34.8462V32.8502H20.3037C20.8069 32.8502 21.2146 32.4424 21.2146 31.9393C21.2146 31.4362 20.8069 31.0284 20.3037 31.0284H17.336V23.2147C17.336 23.1811 17.3633 23.1539 17.3967 23.1539H35.9352C36.4384 23.1539 36.8462 22.7461 36.8462 22.243C36.8462 21.7399 36.4384 21.3321 35.9352 21.3321H17.3967C17.3963 21.3321 17.3961 21.3321 17.3957 21.3321C17.3954 21.3321 17.3951 21.3321 17.3947 21.3321C17.3623 21.3321 17.3361 21.3057 17.3361 21.2734V20.3038C17.3361 15.4595 21.2771 11.5184 26.1215 11.5184H33.8786C38.7229 11.5184 42.664 15.4595 42.664 20.3038V21.2734C42.664 21.3058 42.6376 21.3321 42.6053 21.3321C42.6049 21.3321 42.6047 21.3321 42.6043 21.3321C42.604 21.3321 42.6037 21.3321 42.6034 21.3321H39.5792C39.076 21.3321 38.6683 21.7399 38.6683 22.243C38.6683 22.7461 39.076 23.1539 39.5792 23.1539H42.6034C42.6368 23.1539 42.6641 23.1811 42.6641 23.2147V31.0284H39.6964C39.1932 31.0284 38.7855 31.4362 38.7855 31.9393C38.7855 32.4424 39.1932 32.8502 39.6964 32.8502H42.6641V34.8462C42.6641 34.8797 42.6368 34.9069 42.6034 34.9069H27.6049C27.1018 34.9069 26.694 35.3147 26.694 35.8178C26.694 36.3209 27.1018 36.7287 27.6049 36.7287H41.6356C42.2027 36.7287 42.664 37.19 42.664 37.7571V39.6964Z" fill="url(#paint0_linear_23_17)"/>
<path d="M32.907 30.9108C33.9451 30.9108 34.7895 30.0663 34.7895 29.0282V27.093C34.7895 26.0549 33.9451 25.2104 32.907 25.2104H27.0932C26.0551 25.2104 25.2106 26.0549 25.2106 27.093V29.0282C25.2106 30.0663 26.0551 30.9108 27.0932 30.9108H32.907ZM27.0323 29.0282V27.093C27.0323 27.0595 27.0596 27.0323 27.093 27.0323H32.9068C32.9402 27.0323 32.9676 27.0595 32.9676 27.093V29.0282C32.9676 29.0618 32.9402 29.089 32.9068 29.089H27.093C27.0596 29.089 27.0323 29.0618 27.0323 29.0282Z" fill="url(#paint1_linear_23_17)"/>
</g>
<defs>
<linearGradient id="paint0_linear_23_17" x1="30.0001" y1="0" x2="30.0001" y2="60.0001" gradientUnits="userSpaceOnUse">
<stop stop-color="#00A5C2"/>
<stop offset="1" stop-color="#00B2D0"/>
</linearGradient>
<linearGradient id="paint1_linear_23_17" x1="30.0001" y1="25.2104" x2="30.0001" y2="30.9108" gradientUnits="userSpaceOnUse">
<stop stop-color="#00A5C2"/>
<stop offset="1" stop-color="#00B2D0"/>
</linearGradient>
<clipPath id="clip0_23_17">
<rect width="60" height="60" fill="white"/>
</clipPath>
</defs>
</svg>
