<svg width="60" height="60" viewBox="0 0 60 60" fill="none" xmlns="http://www.w3.org/2000/svg">
<path fill-rule="evenodd" clip-rule="evenodd" d="M42.8907 26.162V22.7931C42.8907 19.6696 42.51 18.1039 40.3713 15.5372L37.0314 11.5291V7.88598C37.7307 7.48005 38.2032 6.72466 38.2032 5.85959V2.34351C38.2032 1.05128 37.152 0 35.8597 0H24.1405C22.8483 0 21.797 1.05128 21.797 2.34351V5.85959C21.797 6.72466 22.2695 7.47993 22.9687 7.88598V11.5291L19.6289 15.5372C17.4902 18.104 17.1095 19.6697 17.1095 22.7931V26.162C17.1095 28.0341 17.5028 29.5569 17.883 31.0296C18.2386 32.4062 18.5743 33.7064 18.5743 35.244C18.5743 38.1952 18.3033 40.3644 17.9893 42.8759C17.577 46.1764 17.1095 49.9171 17.1095 56.4843C17.1095 58.4228 18.6866 59.9999 20.6251 59.9999H39.375C41.3136 59.9999 42.8907 58.4228 42.8907 56.4843C42.8907 49.9171 42.4232 46.1764 42.0107 42.8759C41.6969 40.3643 41.4258 38.1952 41.4258 35.244C41.4258 33.7063 41.7616 32.4061 42.117 31.0296C42.4975 29.5569 42.8907 28.0341 42.8907 26.162ZM20.1524 30.4436C19.7928 29.0514 19.4532 27.7363 19.4532 26.162V23.965H40.5469V26.162C40.5469 27.7364 40.2074 29.0514 39.8478 30.4436C39.4713 31.9012 39.0821 33.4086 39.0821 35.244C39.0821 38.1231 39.3352 40.3514 39.62 42.6442H20.3802C20.665 40.3512 20.9181 38.1231 20.9181 35.244C20.9181 33.4086 20.5288 31.9014 20.1524 30.4436ZM35.8594 2.34351L35.8597 5.85935L24.1407 5.85959L24.1403 2.34374L35.8594 2.34351ZM21.4295 17.0375L25.0408 12.7034C25.2164 12.4928 25.3124 12.2274 25.3124 11.9533V8.20309H34.6877V11.9533C34.6877 12.2274 34.7838 12.4928 34.9592 12.7034L38.5706 17.0375C40.0361 18.7962 40.4341 19.7549 40.5237 21.6212H19.4763C19.566 19.7549 19.9639 18.7962 21.4295 17.0375ZM39.375 57.6563H20.6251C19.9789 57.6563 19.4532 57.1306 19.4532 56.4844C19.4532 51.2312 19.7597 47.8239 20.0924 44.9881H39.9079C40.2406 47.8239 40.547 51.2312 40.547 56.4844C40.5469 57.1306 40.0212 57.6563 39.375 57.6563Z" fill="url(#paint0_linear_26_25)"/>
<path fill-rule="evenodd" clip-rule="evenodd" d="M30.0001 37.0156C31.6059 37.0217 32.9298 35.6493 32.9298 34.0462C32.9298 32.1101 30.6887 29.5938 30.0001 29.5938C29.3115 29.5938 27.0704 32.1101 27.0704 34.0462C27.0704 35.6493 28.3943 37.0218 30.0001 37.0156Z" fill="url(#paint1_linear_26_25)"/>
<defs>
<linearGradient id="paint0_linear_26_25" x1="30.0001" y1="0" x2="30.0001" y2="59.9999" gradientUnits="userSpaceOnUse">
<stop stop-color="#00A5C2"/>
<stop offset="1" stop-color="#00B2D0"/>
</linearGradient>
<linearGradient id="paint1_linear_26_25" x1="30.0001" y1="29.5938" x2="30.0001" y2="37.0156" gradientUnits="userSpaceOnUse">
<stop stop-color="#00A5C2"/>
<stop offset="1" stop-color="#00B2D0"/>
</linearGradient>
</defs>
</svg>
