<svg width="40" height="41" viewBox="0 0 40 41" fill="none" xmlns="http://www.w3.org/2000/svg">
<g clip-path="url(#clip0_14_305)">
<path d="M28.3781 15.3967C28.3757 15.3935 28.3733 15.3903 28.3709 15.3873L20.6525 5.44876C20.5049 5.25868 20.2779 5.14728 20.0374 5.14673C20.0367 5.14673 20.0361 5.14673 20.0356 5.14673C19.7956 5.14673 19.5689 5.25704 19.4209 5.44595L11.6685 15.3324C11.6546 15.3501 11.6416 15.3683 11.6294 15.387C10.0759 17.3003 9.22148 19.708 9.22148 22.1779C9.22148 28.1212 14.0567 32.9565 20.0001 32.9565C25.9435 32.9565 30.7787 28.1212 30.7787 22.1779C30.7787 19.7145 29.9264 17.3076 28.3781 15.3967ZM20 31.3941C14.9181 31.3941 10.7837 27.2597 10.7837 22.1778C10.7837 20.0401 11.5322 17.9569 12.8912 16.3119C12.9134 16.285 12.9337 16.2567 12.9518 16.2276L20.0326 7.19767L27.1189 16.3221C27.1281 16.335 27.1377 16.3475 27.1478 16.3599C28.4818 17.9967 29.2164 20.0628 29.2164 22.1778C29.2164 27.2597 25.0819 31.3941 20 31.3941Z" fill="#00B2D0"/>
<path d="M27.028 22.8612C26.6081 22.762 26.1874 23.0223 26.0884 23.4422C25.6434 25.3299 24.304 26.8984 22.5059 27.6381C22.107 27.8023 21.9165 28.2587 22.0807 28.6577C22.2049 28.9595 22.4961 29.1419 22.8035 29.1419C22.9025 29.1419 23.0032 29.123 23.1004 29.083C25.3633 28.1521 27.0489 26.1774 27.6093 23.8007C27.7081 23.3808 27.4479 22.9601 27.028 22.8612Z" fill="#00B2D0"/>
<path d="M27.0306 19.6921C26.5993 19.6921 26.2494 20.0419 26.2494 20.4733V20.4892C26.2494 20.9206 26.5993 21.2703 27.0306 21.2703C27.4619 21.2703 27.8118 20.9206 27.8118 20.4892V20.4733C27.8118 20.0419 27.4619 19.6921 27.0306 19.6921Z" fill="#00B2D0"/>
<path d="M29.5865 3.22553L28.4947 1.33436C28.279 0.960764 27.8015 0.832717 27.4275 1.04842C27.1083 1.23272 26.9693 1.60803 27.0697 1.94655C23.3383 0.537326 19.2453 0.270763 15.3313 1.21147C10.6293 2.34163 6.49961 5.13296 3.7032 9.07148C0.933976 12.9717 -0.350636 17.7295 0.086396 22.4684C0.12374 22.8736 0.464209 23.1779 0.863351 23.1778C0.887413 23.1778 0.911632 23.1767 0.936007 23.1745C1.36562 23.1349 1.68179 22.7546 1.64218 22.3249C0.808116 13.2805 6.85008 4.85679 15.6963 2.73061C19.5517 1.80405 23.5951 2.1485 27.2191 3.6903L26.6283 4.03147C26.2547 4.24726 26.1267 4.72491 26.3424 5.09859C26.4872 5.34921 26.7497 5.48921 27.0197 5.48921C27.1522 5.48921 27.2865 5.45546 27.4095 5.38445L29.3006 4.29257C29.6742 4.07694 29.8022 3.59913 29.5865 3.22553Z" fill="#00B2D0"/>
<path d="M39.8218 18.007C39.7644 17.5794 39.371 17.2791 38.9436 17.3367C38.516 17.3941 38.216 17.7872 38.2734 18.2149C39.4821 27.2169 33.7949 35.8841 25.0445 38.3756C21.2976 39.4425 17.4108 39.3101 13.7703 37.998L14.509 37.5297C14.8733 37.2986 14.9813 36.816 14.7504 36.4516C14.5194 36.0872 14.0368 35.9793 13.6722 36.2102L11.8282 37.3796C11.464 37.6105 11.3559 38.0927 11.5865 38.4571L12.7441 40.2861C12.8928 40.521 13.146 40.6496 13.4049 40.6496C13.5477 40.6496 13.6923 40.6105 13.8219 40.5284C14.0832 40.363 14.2119 40.0684 14.1796 39.7805C16.0733 40.3605 18.0194 40.6525 19.9739 40.6525C21.812 40.6525 23.6576 40.3949 25.4723 39.8782C30.1234 38.554 34.1336 35.5936 36.7642 31.5424C39.3692 27.5306 40.4552 22.7235 39.8218 18.007Z" fill="#00B2D0"/>
<path d="M10.5624 29.9489C10.5613 29.9476 10.5605 29.9464 10.5595 29.945L6.57906 24.7096C6.43164 24.5157 6.2025 24.4017 5.95898 24.4011C5.95836 24.4011 5.95773 24.4011 5.95718 24.4011C5.71445 24.4011 5.48539 24.514 5.3375 24.7067L1.33952 29.9146C1.33022 29.9268 1.32132 29.9391 1.3128 29.9517C0.466939 31.0221 0.00193787 32.3654 0.00193787 33.7425C0.00193787 37.0772 2.6653 39.7902 5.93882 39.7902C9.21235 39.7902 11.8757 37.0772 11.8757 33.7425C11.8757 32.3655 11.4095 31.0193 10.5624 29.9489ZM5.93882 38.2279C3.52663 38.2279 1.56428 36.2158 1.56428 33.7425C1.56428 32.6992 1.92132 31.6832 2.56968 30.8817C2.58679 30.8605 2.60272 30.8386 2.61733 30.816L5.95422 26.4692L9.30235 30.873C9.31016 30.8839 9.31821 30.8946 9.32664 30.905C9.96297 31.7026 10.3135 32.7104 10.3135 33.7425C10.3134 36.2158 8.35102 38.2279 5.93882 38.2279Z" fill="#00B2D0"/>
<path d="M8.51672 32.9614C8.08539 32.9614 7.73555 33.3112 7.73555 33.7426C7.73555 34.7639 6.92961 35.5947 5.93883 35.5947C5.5075 35.5947 5.15765 35.9445 5.15765 36.3759C5.15765 36.8073 5.5075 37.1571 5.93883 37.1571C7.79102 37.1571 9.2979 35.6253 9.2979 33.7426C9.2979 33.3112 8.94813 32.9614 8.51672 32.9614Z" fill="#00B2D0"/>
<path d="M38.6847 6.20021C38.6837 6.19888 38.6828 6.19763 38.6818 6.1963L34.7014 0.960904C34.554 0.767075 34.3247 0.653091 34.0813 0.652466C34.0807 0.652466 34.0801 0.652466 34.0795 0.652466C33.8368 0.652466 33.6078 0.765357 33.4598 0.958013L29.4618 6.16599C29.4526 6.17795 29.4439 6.19021 29.4354 6.20263C28.5893 7.27303 28.1243 8.61647 28.1243 9.99381C28.1243 13.3285 30.7876 16.0415 34.0612 16.0415C37.3348 16.0415 39.998 13.3284 39.998 9.99381C39.998 8.61678 39.5317 7.27053 38.6847 6.20021ZM34.0612 14.4791C31.649 14.4791 29.6866 12.467 29.6866 9.99381C29.6866 8.95045 30.0437 7.93451 30.6919 7.13295C30.709 7.11185 30.7247 7.09013 30.7393 7.06771L34.0765 2.72044L37.4247 7.12428C37.4325 7.13513 37.4405 7.14584 37.449 7.15631C38.0853 7.95389 38.4358 8.96162 38.4358 9.99381C38.4357 12.4671 36.4733 14.4791 34.0612 14.4791Z" fill="#00B2D0"/>
<path d="M36.639 9.21265C36.2076 9.21265 35.8578 9.56241 35.8578 9.99382C35.8578 11.0151 35.0519 11.8459 34.0611 11.8459C33.6298 11.8459 33.2799 12.1957 33.2799 12.6271C33.2799 13.0585 33.6298 13.4083 34.0611 13.4083C35.9133 13.4083 37.4202 11.8766 37.4202 9.99382C37.4202 9.56233 37.0704 9.21265 36.639 9.21265Z" fill="#00B2D0"/>
</g>
<defs>
<clipPath id="clip0_14_305">
<rect width="40" height="40" fill="white" transform="translate(0 0.652466)"/>
</clipPath>
</defs>
</svg>
