<svg width="40" height="40" viewBox="0 0 40 40" fill="none" xmlns="http://www.w3.org/2000/svg">
<g clip-path="url(#clip0_14_349)">
<path d="M0 38.0001C0 39.1047 0.89543 40.0001 2 40.0001H38C39.1046 40.0001 40 39.1047 40 38.0001C40 36.8955 39.1046 36.0001 38 36.0001H36.5787L38.3827 33.2948C39.3896 33.0939 40.0808 32.1631 39.9821 31.1411C39.8834 30.1191 39.0268 29.3379 38 29.3334H34V26.6668H35.3333C35.5919 26.6667 35.8271 26.517 35.9368 26.2828C36.0465 26.0486 36.0108 25.7721 35.8453 25.5734L32.512 21.5734C32.3814 21.4282 32.1953 21.3453 32 21.3453C31.8047 21.3453 31.6186 21.4282 31.488 21.5734L28.1547 25.5734C27.9891 25.7721 27.9535 26.0486 28.0632 26.2828C28.1728 26.517 28.4081 26.6667 28.6667 26.6668H30V29.3334H22V26.6668H23.3333C23.5919 26.6667 23.8271 26.517 23.9368 26.2828C24.0465 26.0486 24.0108 25.7721 23.8453 25.5734L20.512 21.5734C20.3814 21.4282 20.1953 21.3453 20 21.3453C19.8047 21.3453 19.6186 21.4282 19.488 21.5734L16.1547 25.5734C15.9892 25.7721 15.9535 26.0486 16.0632 26.2828C16.1728 26.517 16.4081 26.6667 16.6667 26.6668H18V29.3334H10V26.6668H11.3333C11.5919 26.6667 11.8272 26.517 11.9368 26.2828C12.0465 26.0486 12.0108 25.7721 11.8453 25.5734L8.512 21.5734C8.38139 21.4282 8.19529 21.3453 8 21.3453C7.80471 21.3453 7.6186 21.4282 7.488 21.5734L4.15466 25.5734C3.98916 25.7721 3.9535 26.0486 4.06317 26.2828C4.17284 26.517 4.40806 26.6667 4.66667 26.6668H6V29.3334H2C0.89543 29.3334 8.66666e-08 30.2289 8.66666e-08 31.3334C8.66666e-08 32.438 0.89543 33.3334 2 33.3334H3.42133L1.61733 36.0388C0.678619 36.2218 0.000821073 37.0437 0 38.0001H0ZM38.6667 38.0001C38.6667 38.3683 38.3682 38.6668 38 38.6668H2C1.63181 38.6668 1.33333 38.3683 1.33333 38.0001C1.33333 37.6319 1.63181 37.3334 2 37.3334H38C38.3682 37.3334 38.6667 37.6319 38.6667 38.0001ZM10.088 33.3334L8.31 36.0001H6.57666L8.35466 33.3334H10.088ZM29.912 36.0001L31.69 33.3334H33.4233L31.6453 36.0001H29.912ZM28.312 36.0001H26.5787L28.3567 33.3334H30.09L28.312 36.0001ZM24.9787 36.0001H23.2453L25.0233 33.3334H26.7567L24.9787 36.0001ZM21.6453 36.0001H19.912L21.69 33.3334H23.4233L21.6453 36.0001ZM18.312 36.0001H16.5787L18.3567 33.3334H20.09L18.312 36.0001ZM14.9787 36.0001H13.2453L15.0233 33.3334H16.7567L14.9787 36.0001ZM11.6453 36.0001H9.912L11.69 33.3334H13.4233L11.6453 36.0001ZM33.2453 36.0001L35.0233 33.3334H36.7567L34.9787 36.0001H33.2453ZM30.6667 25.3334H30.09L32 23.0414L33.91 25.3334H33.3333C32.9651 25.3334 32.6667 25.6319 32.6667 26.0001V29.3334H31.3333V26.0001C31.3333 25.6319 31.0348 25.3334 30.6667 25.3334ZM18.6667 25.3334H18.09L20 23.0414L21.91 25.3334H21.3333C20.9651 25.3334 20.6667 25.6319 20.6667 26.0001V29.3334H19.3333V26.0001C19.3333 25.6319 19.0349 25.3334 18.6667 25.3334ZM6.66666 25.3334H6.09L8 23.0414L9.91 25.3334H9.33333C8.96514 25.3334 8.66666 25.6319 8.66666 26.0001V29.3334H7.33333V26.0001C7.33333 25.6319 7.03485 25.3334 6.66666 25.3334ZM1.33333 31.3334C1.33333 30.9652 1.63181 30.6668 2 30.6668H38C38.3682 30.6668 38.6667 30.9652 38.6667 31.3334C38.6667 31.7016 38.3682 32.0001 38 32.0001H2C1.63181 32.0001 1.33333 31.7016 1.33333 31.3334ZM6.75466 33.3334L4.97667 36.0001H3.24333L5.02133 33.3334H6.75466Z" fill="#00B2D0"/>
<path d="M20 20.0002C24.0481 19.9954 27.3285 16.715 27.3333 12.6669C27.3333 6.44152 20.7273 0.424191 20.446 0.171525C20.1924 -0.0566866 19.8075 -0.0566866 19.554 0.171525C19.2727 0.424191 12.6667 6.44152 12.6667 12.6669C12.6714 16.715 15.9519 19.9954 20 20.0002ZM20 1.59019C21.4607 3.03552 26 7.91219 26 12.6669C26 15.9806 23.3137 18.6669 20 18.6669C16.6863 18.6669 14 15.9806 14 12.6669C14 7.91886 18.5407 3.03686 20 1.59019Z" fill="#00B2D0"/>
<path d="M20 17.3335C20.3682 17.3335 20.6667 17.035 20.6667 16.6668C20.6667 16.2986 20.3682 16.0001 20 16.0001C18.1599 15.9979 16.6689 14.5068 16.6666 12.6668C16.6666 12.2986 16.3682 12.0001 16 12.0001C15.6318 12.0001 15.3333 12.2986 15.3333 12.6668C15.3363 15.2429 17.4239 17.3305 20 17.3335Z" fill="#00B2D0"/>
<path d="M5.33331 20.0002C8.30357 19.9701 10.6892 17.5418 10.6666 14.5715C10.6666 10.0448 5.98398 5.69217 5.78398 5.50951C5.52904 5.27564 5.13758 5.27564 4.88264 5.50951C4.68264 5.69217 -2.42485e-05 10.0448 -2.42485e-05 14.5715C-0.0225959 17.5418 2.36305 19.9701 5.33331 20.0002ZM5.33331 6.93884C6.46664 8.10884 9.33331 11.3875 9.33331 14.5715C9.35702 16.8059 7.56767 18.6379 5.33331 18.6668C3.09895 18.6379 1.3096 16.8059 1.33331 14.5715C1.33331 11.3942 4.19998 8.11017 5.33331 6.93884Z" fill="#00B2D0"/>
<path d="M5.33333 17.3335C5.70152 17.3335 6 17.035 6 16.6668C6 16.2986 5.70152 16.0001 5.33333 16.0001C4.57133 15.9723 3.97526 15.3336 4 14.5715C4 14.2033 3.70152 13.9048 3.33333 13.9048C2.96514 13.9048 2.66666 14.2033 2.66666 14.5715C2.64214 16.0698 3.83502 17.3053 5.33333 17.3335Z" fill="#00B2D0"/>
<path d="M34.6667 20.0002C37.6369 19.9701 40.0226 17.5418 40 14.5715C40 10.0448 35.3173 5.69217 35.1173 5.50951C34.8624 5.27564 34.4709 5.27564 34.216 5.50951C34.016 5.69217 29.3333 10.0428 29.3333 14.5715C29.3107 17.5418 31.6964 19.9701 34.6667 20.0002ZM34.6667 6.93884C35.8 8.10884 38.6667 11.3875 38.6667 14.5715C38.6667 16.7806 36.8758 18.5715 34.6667 18.5715C32.4575 18.5715 30.6667 16.7806 30.6667 14.5715C30.6667 11.3942 33.5333 8.11017 34.6667 6.93884Z" fill="#00B2D0"/>
<path d="M34.6667 17.3335C35.0349 17.3335 35.3333 17.035 35.3333 16.6668C35.3333 16.2986 35.0349 16.0001 34.6667 16.0001C33.9047 15.9723 33.3086 15.3336 33.3333 14.5715C33.3333 14.2033 33.0349 13.9048 32.6667 13.9048C32.2985 13.9048 32 14.2033 32 14.5715C31.9755 16.0698 33.1684 17.3053 34.6667 17.3335Z" fill="#00B2D0"/>
</g>
<defs>
<clipPath id="clip0_14_349">
<rect width="40" height="40" fill="white" transform="translate(0 0.00012207)"/>
</clipPath>
</defs>
</svg>
