<svg width="16" height="16" viewBox="0 0 16 16" fill="none" xmlns="http://www.w3.org/2000/svg">
<path d="M3.86975 14.8583C5.10596 15.6022 6.51941 15.9943 7.97168 15.9943C12.3724 15.9943 16 12.4032 16 7.99707C16 3.59607 12.3776 0 7.97168 0C3.57922 0 0.00573731 3.58752 0.00573731 7.99707C0.00573731 9.46875 0.397949 10.8929 1.14172 12.1301L0 16L3.86975 14.8583ZM0.942993 7.99707C0.942993 4.10425 4.09607 0.937134 7.97168 0.937134C11.8817 0.937134 15.0629 4.10425 15.0629 7.99707C15.0629 11.89 11.8817 15.057 7.97168 15.057C6.62622 15.057 5.31873 14.6759 4.19092 13.9547L4.01074 13.8396L1.38611 14.614L2.1604 11.9893L2.04529 11.8092C1.3241 10.6812 0.942993 9.36304 0.942993 7.99707Z" fill="white"/>
<path d="M3.89467 6.52356C4.04945 7.33643 4.50892 8.8999 5.84669 10.2377C7.18446 11.5754 8.74794 12.035 9.56093 12.1898C10.4918 12.3671 11.8579 12.3938 12.5255 11.7262L12.8977 11.354C13.0856 11.1661 13.1891 10.9163 13.1891 10.6505C13.1891 10.3848 13.0856 10.135 12.8977 9.94714L11.4093 8.45874C11.2213 8.27075 10.9716 8.16736 10.7058 8.16736C10.4401 8.16736 10.1903 8.27075 10.0023 8.45874L9.63026 8.83081C9.40297 9.05811 8.97389 9.05908 8.74489 8.83362L7.26027 7.28674C7.25807 7.28442 7.25587 7.2821 7.25355 7.27991C7.02589 7.05225 7.02589 6.68176 7.25355 6.4541L7.62562 6.08203C8.01454 5.69312 8.01454 5.06384 7.62562 4.67505L6.13722 3.18665C5.7494 2.79883 5.1183 2.79883 4.73036 3.18665L4.35829 3.55884V3.55872C3.82545 4.09167 3.64784 5.22766 3.89467 6.52356ZM5.02101 4.22156C5.41163 3.83984 5.39076 3.83252 5.43385 3.83252C5.44862 3.83252 5.46339 3.83813 5.47462 3.84937C7.04298 5.42615 6.97999 5.3335 6.97999 5.37866C6.97999 5.39441 6.97426 5.4082 6.96315 5.41943L6.59096 5.7915C5.9983 6.38416 5.99598 7.34351 6.58717 7.93884L8.07265 9.48669C8.07496 9.48889 8.07716 9.49121 8.07948 9.49353C8.67201 10.0861 9.6985 10.088 10.293 9.49353L10.6651 9.12146C10.6875 9.099 10.7241 9.099 10.7466 9.12146C12.315 10.6981 12.252 10.6055 12.252 10.6506C12.252 10.6665 12.2462 10.6802 12.2351 10.6914L11.8629 11.0635C11.6079 11.3185 10.7957 11.4711 9.73622 11.2693C9.02919 11.1345 7.66969 10.7354 6.50941 9.57507C5.34913 8.41479 4.94996 7.0553 4.81532 6.34827C4.61342 5.28882 4.766 4.47644 5.02101 4.22156Z" fill="white"/>
</svg>
