<svg width="20" height="20" viewBox="0 0 20 20" fill="none" xmlns="http://www.w3.org/2000/svg">
<path d="M18 0H2C0.895431 0 0 0.895431 0 2V18C0 19.1046 0.895431 20 2 20H18C19.1046 20 20 19.1046 20 18V2C20 0.895431 19.1046 0 18 0Z" fill="#FF0000"/>
<path d="M14.9175 6.68674C14.5325 6.19897 13.8216 6 12.464 6H7.53582C6.14712 6 5.4242 6.2118 5.04061 6.73111C4.66663 7.23744 4.66663 7.98348 4.66663 9.01602V10.984C4.66663 12.9844 5.11036 14 7.53582 14H12.464C13.6414 14 14.2937 13.8244 14.7158 13.394C15.1486 12.9525 15.3333 12.2318 15.3333 10.984V9.01602C15.3333 7.92712 15.3044 7.17668 14.9175 6.68674ZM11.5147 10.2717L9.27679 11.5181C9.22676 11.546 9.17205 11.5598 9.11741 11.5598C9.05555 11.5598 8.99382 11.5421 8.93914 11.5068C8.83619 11.4403 8.77333 11.3214 8.77333 11.1931V8.70829C8.77333 8.58024 8.83602 8.46143 8.93876 8.39491C9.04154 8.32839 9.16937 8.32384 9.276 8.38288L11.5139 9.62128C11.6277 9.68428 11.6992 9.80954 11.6994 9.94621C11.6995 10.083 11.6283 10.2084 11.5147 10.2717Z" fill="white"/>
</svg>
