<svg width="20" height="20" viewBox="0 0 20 20" fill="none" xmlns="http://www.w3.org/2000/svg">
<path d="M18 0H2C0.895431 0 0 0.895431 0 2V18C0 19.1046 0.895431 20 2 20H18C19.1046 20 20 19.1046 20 18V2C20 0.895431 19.1046 0 18 0Z" fill="#FF9800"/>
<path d="M6.11985 9.97726C5.78752 10.6297 6.16454 10.9426 7.02501 11.4748C7.75629 11.9265 8.76708 12.0915 9.41548 12.1573C9.14978 12.4132 10.3686 11.2408 6.85844 14.6176C6.11416 15.331 7.31183 16.4759 8.05611 15.7779L10.0696 13.836C10.8398 14.577 11.5793 15.288 12.083 15.7804C12.8273 16.4808 14.025 15.3465 13.2888 14.6201C13.2336 14.5673 10.5603 12.0029 10.7237 12.1597C11.3802 12.0939 12.3755 11.9184 13.0987 11.4772L13.0979 11.4764C13.9583 10.9409 14.3354 10.6289 14.0079 9.97645C13.8105 9.60594 13.2774 9.29636 12.5673 9.83182C12.5673 9.83182 11.6093 10.5655 10.0631 10.5655C8.51763 10.5655 7.55884 9.83182 7.55884 9.83182C6.85113 9.29474 6.31567 9.60675 6.11985 9.97726Z" fill="white"/>
<path d="M10.0623 9.57743C11.9465 9.57743 13.4847 8.10513 13.4847 6.29237C13.4847 4.47231 11.9465 3 10.0623 3C8.17801 3 6.63989 4.47231 6.63989 6.29237C6.63989 8.10513 8.17801 9.57743 10.0623 9.57743ZM10.0623 4.66813C10.9886 4.66813 11.7434 5.39453 11.7434 6.29237C11.7434 7.18291 10.9886 7.90931 10.0623 7.90931C9.13599 7.90931 8.38115 7.18291 8.38115 6.29237C8.38115 5.39372 9.13599 4.66813 10.0623 4.66813Z" fill="white"/>
</svg>
